<svg xmlns="http://www.w3.org/2000/svg" width="669" height="252" fill="none" viewBox="0 0 669 252"><g filter="url(#filter0_d_23_36)"><path fill="#fdfdfd" d="M107.762 223.684s-103.703-9.428-90.5-47c10.183-28.979 64.774-18.217 90.5-35 26.483-17.277 39.5-51 39.5-51s-12.944-41.27 0-61.5c18.733-29.28 59.522-28.698 88.5-9.5 32.758 21.703-2.268 43.014 37 44.5 27.006 1.022 34 10 34 10s65.218-72.914 118-65.5c55.44 7.788 4.632 90.884 60.5 94.5 3.702.24 54-29 54-29s122.729-16.255 112.5 44.5c-8.207 48.743-66.087 40.998-112.5 58-65.532 24.005-176 31-176 31s-77.415 12.876-127.5 16c-49.891 3.112-128 0-128 0"/><path stroke="#d3d3d3" stroke-width="5" d="M107.762 223.684s-103.703-9.428-90.5-47c10.183-28.979 64.774-18.217 90.5-35 26.483-17.277 39.5-51 39.5-51s-12.944-41.27 0-61.5c18.733-29.28 59.522-28.698 88.5-9.5 32.758 21.703-2.268 43.014 37 44.5 27.006 1.022 34 10 34 10s65.218-72.914 118-65.5c55.44 7.788 4.632 90.884 60.5 94.5 3.702.24 54-29 54-29s122.729-16.255 112.5 44.5c-8.207 48.743-66.087 40.998-112.5 58-65.532 24.005-176 31-176 31s-77.415 12.876-127.5 16c-49.891 3.112-128 0-128 0Z"/></g><g filter="url(#filter1_f_23_36)"><path fill="#e8e8e8" d="M129.792 205.254s-74.322-5.77-64.86-28.763c7.298-17.734 46.423-11.148 64.86-21.418 18.98-10.573 28.309-31.211 28.309-31.211s-9.277-25.255 0-37.635c13.426-17.919 42.659-17.562 63.426-5.814 23.477 13.282-1.625 26.323 26.517 27.232 19.355.626 24.367 6.12 24.367 6.12s46.741-44.62 84.569-40.084c39.732 4.766 3.32 55.618 43.359 57.831 2.653.147 38.7-17.747 38.7-17.747s87.958-9.948 80.627 27.232c-5.882 29.829-47.363 25.09-80.627 35.494-46.965 14.691-126.135 18.971-126.135 18.971s-55.482 7.88-91.377 9.792c-35.755 1.904-91.735 0-91.735 0"/><path stroke="#d3d3d3" stroke-width="2.523" d="M129.792 205.254s-74.322-5.77-64.86-28.763c7.298-17.734 46.423-11.148 64.86-21.418 18.98-10.573 28.309-31.211 28.309-31.211s-9.277-25.255 0-37.635c13.426-17.919 42.659-17.562 63.426-5.814 23.477 13.282-1.625 26.323 26.517 27.232 19.355.626 24.367 6.12 24.367 6.12s46.741-44.62 84.569-40.084c39.732 4.766 3.32 55.618 43.359 57.831 2.653.147 38.7-17.747 38.7-17.747s87.958-9.948 80.627 27.232c-5.882 29.829-47.363 25.09-80.627 35.494-46.965 14.691-126.135 18.971-126.135 18.971s-55.482 7.88-91.377 9.792c-35.755 1.904-91.735 0-91.735 0Z"/></g><defs><filter id="filter0_d_23_36" width="668.467" height="251.167" x="0" y="0" color-interpolation-filters="sRGB" filterUnits="userSpaceOnUse"><feFlood flood-opacity="0" result="BackgroundImageFix"/><feColorMatrix in="SourceAlpha" result="hardAlpha" values="0 0 0 0 0 0 0 0 0 0 0 0 0 0 0 0 0 0 127 0"/><feOffset dy="10"/><feGaussianBlur stdDeviation="6.8"/><feComposite in2="hardAlpha" operator="out"/><feColorMatrix values="0 0 0 0 0 0 0 0 0 0 0 0 0 0 0 0 0 0 0.25 0"/><feBlend in2="BackgroundImageFix" result="effect1_dropShadow_23_36"/><feBlend in="SourceGraphic" in2="effect1_dropShadow_23_36" result="shape"/></filter><filter id="filter1_f_23_36" width="514.522" height="192.523" x="34.839" y="42.839" color-interpolation-filters="sRGB" filterUnits="userSpaceOnUse"><feFlood flood-opacity="0" result="BackgroundImageFix"/><feBlend in="SourceGraphic" in2="BackgroundImageFix" result="shape"/><feGaussianBlur result="effect1_foregroundBlur_23_36" stdDeviation="14"/></filter></defs></svg>