<svg xmlns="http://www.w3.org/2000/svg" width="722" height="319" fill="none" viewBox="0 0 722 319"><g filter="url(#filter0_d_23_44)"><path fill="#fdfdfd" d="M148.532 280.712c-55.091.788-161.026-26.911-125.187-75.433 22.85-30.938 66.459 11.946 88.287-19.968 37.72-55.149 79.081-35.012 96.214-43.739 25.511-12.994-18.386-42.961-26.787-46.59-13.94-6.023-18.587-5.389-18.587-25.04 0-16.935 18.587-20.601 30.341-25.355 29.918-12.102 112.614-49.76 141.04-35.181 111.56 57.216-2.822 218.689 112.068 171.151 16.545-6.846 36.177-3.62 40.18-23.454 2.005-9.931 2.356-43.542 15.307-45.324 32.253-4.437 30.249 9.614 40.727 22.187 10.025 12.029 19.207 17.03 33.62 17.749 27.684 1.38 27.661-40.137 51.387-56.734 21.107-14.765 67.228 2.69 76.534 29.159 14.487 41.203-84.789 66.316-150.334 111.566-95.486 65.918-174.363 67.397-282.629 38.35-19.414-5.209-29.042-15.288-48.927-16.798-29.614-2.249-43.578 23.03-73.254 23.454"/><path stroke="#d3d3d3" stroke-width="5" d="M148.532 280.712c-55.091.788-161.026-26.911-125.187-75.433 22.85-30.938 66.459 11.946 88.287-19.968 37.72-55.149 79.081-35.012 96.214-43.739 25.511-12.994-18.386-42.961-26.787-46.59-13.94-6.023-18.587-5.389-18.587-25.04 0-16.935 18.587-20.601 30.341-25.355 29.918-12.102 112.614-49.76 141.04-35.181 111.56 57.216-2.822 218.689 112.068 171.151 16.545-6.846 36.177-3.62 40.18-23.454 2.005-9.931 2.356-43.542 15.307-45.324 32.253-4.437 30.249 9.614 40.727 22.187 10.025 12.029 19.207 17.03 33.62 17.749 27.684 1.38 27.661-40.137 51.387-56.734 21.107-14.765 67.228 2.69 76.534 29.159 14.487 41.203-84.789 66.316-150.334 111.566-95.486 65.918-174.363 67.397-282.629 38.35-19.414-5.209-29.042-15.288-48.927-16.798-29.614-2.249-43.578 23.03-73.254 23.454Z"/></g><g filter="url(#filter1_f_23_44)"><path fill="#e8e8e8" d="M175.24 250.616c-29.986.219-87.645-7.455-68.138-20.898 12.437-8.572 36.173 3.309 48.054-5.533 20.53-15.279 43.043-9.7 52.368-12.117 13.885-3.601-10.007-11.903-14.58-12.909-7.587-1.668-10.116-1.492-10.116-6.937 0-4.692 10.116-5.707 16.513-7.024 16.285-3.353 61.295-13.787 76.768-9.747 60.72 15.852-1.537 60.588 60.997 47.417 9.005-1.896 19.69-1.003 21.869-6.498 1.091-2.751 1.283-12.063 8.332-12.557 17.555-1.229 16.464 2.664 22.167 6.147 5.457 3.333 10.454 4.718 18.299 4.918 15.068.382 15.056-11.12 27.97-15.719 11.488-4.09 36.591.746 41.656 8.079 7.885 11.415-46.149 18.373-81.825 30.909-51.972 18.263-94.904 18.673-153.832 10.625-10.567-1.443-15.808-4.235-26.631-4.654-16.118-.623-23.719 6.381-39.871 6.498"/><path stroke="#e8e8e8" stroke-width="27" d="M175.24 250.616c-29.986.219-87.645-7.455-68.138-20.898 12.437-8.572 36.173 3.309 48.054-5.533 20.53-15.279 43.043-9.7 52.368-12.117 13.885-3.601-10.007-11.903-14.58-12.909-7.587-1.668-10.116-1.492-10.116-6.937 0-4.692 10.116-5.707 16.513-7.024 16.285-3.353 61.295-13.787 76.768-9.747 60.72 15.852-1.537 60.588 60.997 47.417 9.005-1.896 19.69-1.003 21.869-6.498 1.091-2.751 1.283-12.063 8.332-12.557 17.555-1.229 16.464 2.664 22.167 6.147 5.457 3.333 10.454 4.718 18.299 4.918 15.068.382 15.056-11.12 27.97-15.719 11.488-4.09 36.591.746 41.656 8.079 7.885 11.415-46.149 18.373-81.825 30.909-51.972 18.263-94.904 18.673-153.832 10.625-10.567-1.443-15.808-4.235-26.631-4.654-16.118-.623-23.719 6.381-39.871 6.498Z"/></g><g filter="url(#filter2_f_23_44)"><path fill="#e8e8e8" d="M235.782 78.757c-12.353.171-36.123-2.776-28.114-8.272 5.107-3.504 14.909 1.24 19.786-2.372 8.427-6.242 17.713-4.045 21.55-5.05 5.713-1.496-4.147-4.79-6.033-5.185-3.129-.654-4.17-.577-4.181-2.78-.01-1.9 4.156-2.339 6.789-2.89 6.702-1.402 25.224-5.75 31.606-4.157 25.047 6.25-.511 24.531 25.225 19.027 3.706-.793 8.11-.46 8.996-2.691.444-1.117.504-4.887 3.407-5.106 7.23-.546 6.788 1.033 9.145 2.427 2.254 1.334 4.316 1.881 7.548 1.94 6.209.113 6.18-4.543 11.491-6.44 4.725-1.688 15.076.2 17.178 3.155 3.271 4.6-18.975 7.565-33.647 12.739-21.374 7.536-39.06 7.82-63.353 4.725-4.357-.555-6.521-1.67-10.981-1.81-6.641-.208-9.758 2.648-16.412 2.74"/><path stroke="#e8e8e8" stroke-width="27" d="M235.782 78.757c-12.353.171-36.123-2.776-28.114-8.272 5.107-3.504 14.909 1.24 19.786-2.372 8.427-6.242 17.713-4.045 21.55-5.05 5.713-1.496-4.147-4.79-6.033-5.185-3.129-.654-4.17-.577-4.181-2.78-.01-1.9 4.156-2.339 6.789-2.89 6.702-1.402 25.224-5.75 31.606-4.157 25.047 6.25-.511 24.531 25.225 19.027 3.706-.793 8.11-.46 8.996-2.691.444-1.117.504-4.887 3.407-5.106 7.23-.546 6.788 1.033 9.145 2.427 2.254 1.334 4.316 1.881 7.548 1.94 6.209.113 6.18-4.543 11.491-6.44 4.725-1.688 15.076.2 17.178 3.155 3.271 4.6-18.975 7.565-33.647 12.739-21.374 7.536-39.06 7.82-63.353 4.725-4.357-.555-6.521-1.67-10.981-1.81-6.641-.208-9.758 2.648-16.412 2.74Z"/></g><g filter="url(#filter3_f_23_44)"><path fill="#e8e8e8" d="M499.644 197.309c-8.82.212-25.809-5.045-20.117-14.49 3.629-6.022 10.653 2.245 14.117-3.966 5.986-10.731 12.628-6.872 15.363-8.582 4.073-2.547-2.985-8.309-4.334-9.004-2.238-1.152-2.981-1.025-3-4.834-.016-3.283 2.956-4.014 4.833-4.948 4.779-2.378 17.984-9.768 22.55-6.972 17.918 10.973-.241 42.399 18.109 33.06 2.643-1.345 5.789-.74 6.411-4.59.311-1.927.335-8.444 2.407-8.803 5.16-.895 4.853 1.831 6.543 4.258 1.616 2.321 3.092 3.281 5.4 3.404 4.434.238 4.39-7.81 8.173-11.053 3.366-2.885 10.767.449 12.283 5.571 2.359 7.972-13.512 12.947-23.964 21.789-15.225 12.882-27.853 13.253-45.217 7.738-3.113-.989-4.665-2.932-7.85-3.204-4.744-.404-6.955 4.512-11.707 4.626"/><path stroke="#e8e8e8" stroke-width="27" d="M499.644 197.309c-8.82.212-25.809-5.045-20.117-14.49 3.629-6.022 10.653 2.245 14.117-3.966 5.986-10.731 12.628-6.872 15.363-8.582 4.073-2.547-2.985-8.309-4.334-9.004-2.238-1.152-2.981-1.025-3-4.834-.016-3.283 2.956-4.014 4.833-4.948 4.779-2.378 17.984-9.768 22.55-6.972 17.918 10.973-.241 42.399 18.109 33.06 2.643-1.345 5.789-.74 6.411-4.59.311-1.927.335-8.444 2.407-8.803 5.16-.895 4.853 1.831 6.543 4.258 1.616 2.321 3.092 3.281 5.4 3.404 4.434.238 4.39-7.81 8.173-11.053 3.366-2.885 10.767.449 12.283 5.571 2.359 7.972-13.512 12.947-23.964 21.789-15.225 12.882-27.853 13.253-45.217 7.738-3.113-.989-4.665-2.932-7.85-3.204-4.744-.404-6.955 4.512-11.707 4.626Z"/></g><defs><filter id="filter0_d_23_44" width="721.204" height="318.2" x="0" y="0" color-interpolation-filters="sRGB" filterUnits="userSpaceOnUse"><feFlood flood-opacity="0" result="BackgroundImageFix"/><feColorMatrix in="SourceAlpha" result="hardAlpha" values="0 0 0 0 0 0 0 0 0 0 0 0 0 0 0 0 0 0 127 0"/><feOffset dy="10"/><feGaussianBlur stdDeviation="6.8"/><feComposite in2="hardAlpha" operator="out"/><feColorMatrix values="0 0 0 0 0 0 0 0 0 0 0 0 0 0 0 0 0 0 0.25 0"/><feBlend in2="BackgroundImageFix" result="effect1_dropShadow_23_44"/><feBlend in="SourceGraphic" in2="effect1_dropShadow_23_44" result="shape"/></filter><filter id="filter1_f_23_44" width="458.026" height="162.238" x="61.648" y="133.033" color-interpolation-filters="sRGB" filterUnits="userSpaceOnUse"><feFlood flood-opacity="0" result="BackgroundImageFix"/><feBlend in="SourceGraphic" in2="BackgroundImageFix" result="shape"/><feGaussianBlur result="effect1_foregroundBlur_23_44" stdDeviation="14"/></filter><filter id="filter2_f_23_44" width="237.455" height="114.976" x="164.544" y="6.204" color-interpolation-filters="sRGB" filterUnits="userSpaceOnUse"><feFlood flood-opacity="0" result="BackgroundImageFix"/><feBlend in="SourceGraphic" in2="BackgroundImageFix" result="shape"/><feGaussianBlur result="effect1_foregroundBlur_23_44" stdDeviation="14"/></filter><filter id="filter3_f_23_44" width="193.244" height="138.372" x="436.883" y="102.389" color-interpolation-filters="sRGB" filterUnits="userSpaceOnUse"><feFlood flood-opacity="0" result="BackgroundImageFix"/><feBlend in="SourceGraphic" in2="BackgroundImageFix" result="shape"/><feGaussianBlur result="effect1_foregroundBlur_23_44" stdDeviation="14"/></filter></defs></svg>