<svg xmlns="http://www.w3.org/2000/svg" width="591" height="329" fill="none" viewBox="0 0 591 329"><g filter="url(#filter0_d_23_76)"><path fill="#fdfdfd" d="M30.799 273.97c-21 74 544-14.5 544-45.5 0-49.664-81.805 13.414-105-30.5-16.142-30.56 44.03-69.605 16.5-90.5-34.014-25.817-68.847 25.454-111.5 27.5-65.058 3.12 35.5-97 0-114.5-118.055-58.197-138.059 78.63-168 87-46.5 13-209.016-100-189-19.5 13 52.284 121.194 77.619 81 140.5-17.209 26.922-59.277 14.761-68 45.5"/><path stroke="#d3d3d3" stroke-width="5" d="M30.799 273.97c-21 74 544-14.5 544-45.5 0-49.664-81.805 13.414-105-30.5-16.142-30.56 44.03-69.605 16.5-90.5-34.014-25.817-68.847 25.454-111.5 27.5-65.058 3.12 35.5-97 0-114.5-118.055-58.197-138.059 78.63-168 87-46.5 13-209.016-100-189-19.5 13 52.284 121.194 77.619 81 140.5-17.209 26.922-59.277 14.761-68 45.5Z"/></g><g filter="url(#filter1_f_23_76)"><path fill="#e8e8e8" d="M112.854 247.865c-12.222 43.067 316.599-8.438 316.599-26.48 0-28.903-47.609 7.807-61.108-17.75-9.395-17.786 25.624-40.509 9.602-52.67-19.795-15.025-40.068 14.814-64.891 16.005-37.863 1.815 20.661-56.453 0-66.638-68.706-33.869-80.348 45.762-97.773 50.633-27.062 7.566-121.644-58.198-109.995-11.349 7.566 30.429 70.533 45.174 47.141 81.769-10.016 15.668-34.499 8.591-39.575 26.48"/><path stroke="#d3d3d3" stroke-width="2.91" d="M112.854 247.865c-12.222 43.067 316.599-8.438 316.599-26.48 0-28.903-47.609 7.807-61.108-17.75-9.395-17.786 25.624-40.509 9.602-52.67-19.795-15.025-40.068 14.814-64.891 16.005-37.863 1.815 20.661-56.453 0-66.638-68.706-33.869-80.348 45.762-97.773 50.633-27.062 7.566-121.644-58.198-109.995-11.349 7.566 30.429 70.533 45.174 47.141 81.769-10.016 15.668-34.499 8.591-39.575 26.48Z"/></g><defs><filter id="filter0_d_23_76" width="590.899" height="328.84" x="0" y="0" color-interpolation-filters="sRGB" filterUnits="userSpaceOnUse"><feFlood flood-opacity="0" result="BackgroundImageFix"/><feColorMatrix in="SourceAlpha" result="hardAlpha" values="0 0 0 0 0 0 0 0 0 0 0 0 0 0 0 0 0 0 127 0"/><feOffset dy="10"/><feGaussianBlur stdDeviation="6.8"/><feComposite in2="hardAlpha" operator="out"/><feColorMatrix values="0 0 0 0 0 0 0 0 0 0 0 0 0 0 0 0 0 0 0.25 0"/><feBlend in2="BackgroundImageFix" result="effect1_dropShadow_23_76"/><feBlend in="SourceGraphic" in2="effect1_dropShadow_23_76" result="shape"/></filter><filter id="filter1_f_23_76" width="384.064" height="231.549" x="74.844" y="62.514" color-interpolation-filters="sRGB" filterUnits="userSpaceOnUse"><feFlood flood-opacity="0" result="BackgroundImageFix"/><feBlend in="SourceGraphic" in2="BackgroundImageFix" result="shape"/><feGaussianBlur result="effect1_foregroundBlur_23_76" stdDeviation="14"/></filter></defs></svg>