<svg xmlns="http://www.w3.org/2000/svg" width="967" height="304" fill="none" viewBox="0 0 967 304"><g filter="url(#filter0_d_23_69)"><path fill="#fdfdfd" d="M934.318 258.685c-57 37-845.5 8.5-845.5 8.5s-36.616 6.879-53 0c-41.924-17.602-9.884-90.665 30-112.5 68.5-37.5 92.5 78 92.5 78 31.5 17.5 45.045-14 67.5-14 67 0-57.228-51.5 0-84 81-46 81 98 125 62.5 65.895-53.165-2.103-164.821 80-185.5 202.5-51 68.178 266.167 161.5 185.5 21.364-18.466 29.762-30 58-30 33 0 35.625 54.595 86 51.5 50.718-3.115 30.453-46.311 81-51.5 66.314-6.807 172.915 55.205 117 91.5"/><path stroke="#d3d3d3" stroke-width="5" d="M158.318 232.685c31.5 17.5 45.045-14 67.5-14 67 0-57.228-51.5 0-84 81-46 81 98 125 62.5 65.895-53.165-2.103-164.821 80-185.5 202.5-51 68.178 266.167 161.5 185.5 21.364-18.466 29.762-30 58-30 33 0 35.625 54.595 86 51.5 50.718-3.115 30.453-46.311 81-51.5 66.314-6.807 172.915 55.205 117 91.5-57 37-845.5 8.5-845.5 8.5s-36.616 6.879-53 0c-41.924-17.602-9.884-90.665 30-112.5 68.5-37.5 92.5 78 92.5 78Zm0 0c-4.934 4.561 4.642-4.857 0 0Z"/></g><g filter="url(#filter1_f_23_69)"><path fill="#e8e8e8" d="M704.997 246.858c-28.443 10.219-421.893 2.348-421.893 2.348s-18.272 1.9-26.447 0c-20.919-4.862-4.932-25.04 14.97-31.07 34.18-10.357 46.156 21.542 46.156 21.542 15.718 4.833 22.477-3.867 33.682-3.867 33.432 0-28.557-14.223 0-23.199 40.418-12.704 40.418 27.066 62.373 17.261 32.881-14.682-1.05-45.52 39.919-51.23 101.045-14.085 34.019 73.509 80.586 51.23 10.66-5.099 14.851-8.285 28.941-8.285 16.467 0 17.777 15.078 42.913 14.223 25.308-.86 15.196-12.79 40.418-14.223 33.09-1.88 86.282 15.246 58.382 25.27"/><path stroke="#d3d3d3" stroke-width="2.827" d="M317.783 239.678c15.718 4.833 22.477-3.867 33.682-3.867 33.432 0-28.557-14.223 0-23.199 40.418-12.704 40.418 27.066 62.373 17.261 32.881-14.682-1.05-45.52 39.919-51.23 101.045-14.085 34.019 73.509 80.586 51.23 10.66-5.099 14.851-8.285 28.941-8.285 16.467 0 17.777 15.078 42.913 14.223 25.308-.86 15.196-12.79 40.418-14.223 33.09-1.88 86.282 15.246 58.382 25.27-28.443 10.219-421.893 2.348-421.893 2.348s-18.272 1.9-26.447 0c-20.919-4.862-4.932-25.04 14.97-31.07 34.18-10.357 46.156 21.542 46.156 21.542Zm0 0c-2.462 1.259 2.316-1.342 0 0Z"/></g><g filter="url(#filter2_f_23_69)"><path fill="#e8e8e8" d="M721.409 244.955c-30.578 6.131-453.58 1.409-453.58 1.409s-19.644 1.139-28.433 0c-22.49-2.917-5.302-15.024 16.094-18.642 36.748-6.214 49.623 12.925 49.623 12.925 16.899 2.9 24.165-2.32 36.211-2.32 35.943 0-30.701-8.534 0-13.92 43.454-7.622 43.454 16.24 67.058 10.357 35.351-8.81-1.128-27.312 42.918-30.738 108.633-8.451 36.574 44.105 86.638 30.738 11.461-3.06 15.967-4.971 31.115-4.971 17.704 0 19.112 9.047 46.136 8.534 27.208-.516 16.337-7.674 43.454-8.534 35.575-1.128 92.762 9.148 62.766 15.162"/><path stroke="#d3d3d3" stroke-width="2.827" d="M305.113 240.647c16.899 2.9 24.165-2.32 36.211-2.32 35.943 0-30.701-8.534 0-13.92 43.454-7.622 43.454 16.24 67.058 10.357 35.351-8.81-1.128-27.312 42.918-30.738 108.633-8.451 36.574 44.105 86.638 30.738 11.461-3.06 15.967-4.971 31.115-4.971 17.704 0 19.112 9.047 46.136 8.534 27.208-.516 16.337-7.674 43.454-8.534 35.575-1.128 92.762 9.148 62.766 15.162-30.578 6.131-453.58 1.409-453.58 1.409s-19.644 1.139-28.433 0c-22.49-2.917-5.302-15.024 16.094-18.642 36.748-6.214 49.623 12.925 49.623 12.925Zm0 0c-2.647.755 2.49-.805 0 0Z"/></g><g filter="url(#filter3_f_23_69)"><path fill="#e8e8e8" d="M395.206 234.108c-14.798-13.556 11.369-182.01 11.369-182.01s-2.29-8.112.94-11.39c8.265-8.39 38.915 1.073 47.537 10.415 14.808 16.044-34.969 17.128-34.969 17.128-8.036 6.153 5.183 10.175 4.784 15-1.188 14.4 23.021-10.482 35.892 2.964 18.219 19.03-43.311 13.951-28.923 24.66 21.548 16.037 21.545.35 28.923 18.725 18.199 45.319-66.019 10.275-33.207 33.176 7.511 5.243 12.29 7.455 11.789 13.523-.585 7.093-23.959 5.731-23.531 16.667.432 11.009 19.248 8.178 20.568 19.224 1.733 14.492-26.655 35.215-41.172 21.918"/><path stroke="#d3d3d3" stroke-width="2.827" d="M420.083 68.251c-8.036 6.153 5.183 10.175 4.784 15-1.188 14.4 23.021-10.482 35.892 2.964 18.219 19.03-43.311 13.951-28.923 24.66 21.548 16.037 21.545.35 28.923 18.725 18.199 45.319-66.019 10.275-33.207 33.176 7.511 5.243 12.29 7.455 11.789 13.523-.585 7.093-23.959 5.731-23.531 16.667.432 11.009 19.248 8.178 20.568 19.224 1.733 14.492-26.655 35.215-41.172 21.918-14.798-13.556 11.369-182.01 11.369-182.01s-2.29-8.112.94-11.39c8.265-8.39 38.915 1.073 47.537 10.415 14.808 16.044-34.969 17.128-34.969 17.128Zm0 0c-1.861-1.221 1.993 1.17 0 0Z"/></g><g filter="url(#filter4_f_23_69)"><path fill="#e8e8e8" d="M141.577 235.963c-3.898 18.188-94.465 17.789-94.465 17.789s-3.65 3.807-5.958.867c-5.906-7.524-7.26-42.121-4.259-52.956 5.156-18.609 15.69 34.863 15.69 34.863 4.727 7.647 4.113-7.265 6.637-7.632 7.531-1.096-9.927-23.082-5.698-39.174 5.984-22.777 15.753 44.378 18.29 27.103 3.801-25.871-4.143-23.279 3.683-34.264 19.303-27.096 18.446 69.461 23.464 30.315 1.149-8.961 1.311-14.477 4.485-14.939 3.709-.539 7.708 24.878 13.16 22.612 5.49-2.283.282-22.096 5.612-25.342 6.992-4.259 23.182 22.917 19.359 40.758"/><path stroke="#d3d3d3" stroke-width="2.827" d="M52.584 236.526c4.728 7.647 4.114-7.265 6.638-7.632 7.531-1.096-9.927-23.082-5.698-39.174 5.984-22.777 15.753 44.378 18.29 27.103 3.801-25.871-4.143-23.279 3.683-34.264 19.303-27.096 18.446 69.461 23.464 30.315 1.149-8.961 1.311-14.477 4.485-14.939 3.709-.539 7.708 24.878 13.16 22.612 5.49-2.283.282-22.096 5.612-25.342 6.992-4.259 23.182 22.917 19.359 40.758-3.898 18.188-94.465 17.789-94.465 17.789s-3.65 3.807-5.958.867c-5.906-7.524-7.26-42.121-4.259-52.956 5.156-18.609 15.69 34.863 15.69 34.863Zm0 0c-.245 2.208.192-2.341 0 0Z"/></g><defs><filter id="filter0_d_23_69" width="966.094" height="303.765" x="0" y="0" color-interpolation-filters="sRGB" filterUnits="userSpaceOnUse"><feFlood flood-opacity="0" result="BackgroundImageFix"/><feColorMatrix in="SourceAlpha" result="hardAlpha" values="0 0 0 0 0 0 0 0 0 0 0 0 0 0 0 0 0 0 127 0"/><feOffset dy="10"/><feGaussianBlur stdDeviation="6.8"/><feComposite in2="hardAlpha" operator="out"/><feColorMatrix values="0 0 0 0 0 0 0 0 0 0 0 0 0 0 0 0 0 0 0.25 0"/><feBlend in2="BackgroundImageFix" result="effect1_dropShadow_23_69"/><feBlend in="SourceGraphic" in2="effect1_dropShadow_23_69" result="shape"/></filter><filter id="filter1_f_23_69" width="500.496" height="109.494" x="229.57" y="159.853" color-interpolation-filters="sRGB" filterUnits="userSpaceOnUse"><feFlood flood-opacity="0" result="BackgroundImageFix"/><feBlend in="SourceGraphic" in2="BackgroundImageFix" result="shape"/><feGaussianBlur result="effect1_foregroundBlur_23_69" stdDeviation="7.917"/></filter><filter id="filter2_f_23_69" width="535.495" height="79.495" x="211.571" y="185.853" color-interpolation-filters="sRGB" filterUnits="userSpaceOnUse"><feFlood flood-opacity="0" result="BackgroundImageFix"/><feBlend in="SourceGraphic" in2="BackgroundImageFix" result="shape"/><feGaussianBlur result="effect1_foregroundBlur_23_69" stdDeviation="7.917"/></filter><filter id="filter3_f_23_69" width="107.986" height="235.409" x="373.425" y="20.215" color-interpolation-filters="sRGB" filterUnits="userSpaceOnUse"><feFlood flood-opacity="0" result="BackgroundImageFix"/><feBlend in="SourceGraphic" in2="BackgroundImageFix" result="shape"/><feGaussianBlur result="effect1_foregroundBlur_23_69" stdDeviation="7.917"/></filter><filter id="filter4_f_23_69" width="141.296" height="112.541" x="18.104" y="160.44" color-interpolation-filters="sRGB" filterUnits="userSpaceOnUse"><feFlood flood-opacity="0" result="BackgroundImageFix"/><feBlend in="SourceGraphic" in2="BackgroundImageFix" result="shape"/><feGaussianBlur result="effect1_foregroundBlur_23_69" stdDeviation="7.917"/></filter></defs></svg>