<svg xmlns="http://www.w3.org/2000/svg" width="630" height="225" fill="none" viewBox="0 0 630 225"><g filter="url(#filter0_d_23_31)"><path fill="#fdfdfd" d="M612.015 167.337c29.274 52.786-543.132 25.609-576.67 6.794-44.28-24.841-5.1-108.223 46.327-114.455 36.664-4.442 50.802 41.027 100.328 41.027 16.768 0 32.684-95.56 114.253-94.596 106.012 1.253 68.496 105.571 97.202 112.104 24.088 5.481 56.447-61.564 105.159-43.901 60.537 21.95 61.861.094 113.401 93.027"/><path stroke="#d3d3d3" stroke-width="5" d="M612.015 167.337c29.274 52.786-543.132 25.609-576.67 6.794-44.28-24.841-5.1-108.223 46.327-114.455 36.664-4.442 50.802 41.027 100.328 41.027 16.768 0 32.684-95.56 114.253-94.596 106.012 1.253 68.496 105.571 97.202 112.104 24.088 5.481 56.447-61.564 105.159-43.901 60.537 21.95 61.861.094 113.401 93.027Z"/></g><g filter="url(#filter1_f_23_31)"><path fill="#e8e8e8" d="M528.328 162.835c20.84 31.341-386.652 15.205-410.527 4.034-31.523-14.75-3.631-64.258 32.979-67.958 26.101-2.638 36.166 24.359 71.423 24.359 11.937 0 23.268-56.738 81.336-56.166 75.469.744 48.762 62.683 69.197 66.562 17.149 3.255 40.184-36.554 74.862-26.066 43.096 13.033 44.039.055 80.73 55.235"/><path stroke="#d3d3d3" stroke-width="1.234" d="M528.328 162.835c20.84 31.341-386.652 15.205-410.527 4.034-31.523-14.75-3.631-64.258 32.979-67.958 26.101-2.638 36.166 24.359 71.423 24.359 11.937 0 23.268-56.738 81.336-56.166 75.469.744 48.762 62.683 69.197 66.562 17.149 3.255 40.184-36.554 74.862-26.066 43.096 13.033 44.039.055 80.73 55.235Z"/></g><defs><filter id="filter0_d_23_31" width="629.2" height="224.2" x="0" y="0" color-interpolation-filters="sRGB" filterUnits="userSpaceOnUse"><feFlood flood-opacity="0" result="BackgroundImageFix"/><feColorMatrix in="SourceAlpha" result="hardAlpha" values="0 0 0 0 0 0 0 0 0 0 0 0 0 0 0 0 0 0 127 0"/><feOffset dy="10"/><feGaussianBlur stdDeviation="6.8"/><feComposite in2="hardAlpha" operator="out"/><feColorMatrix values="0 0 0 0 0 0 0 0 0 0 0 0 0 0 0 0 0 0 0.25 0"/><feBlend in2="BackgroundImageFix" result="effect1_dropShadow_23_31"/><feBlend in="SourceGraphic" in2="effect1_dropShadow_23_31" result="shape"/></filter><filter id="filter1_f_23_31" width="482.234" height="171.234" x="75.483" y="38.483" color-interpolation-filters="sRGB" filterUnits="userSpaceOnUse"><feFlood flood-opacity="0" result="BackgroundImageFix"/><feBlend in="SourceGraphic" in2="BackgroundImageFix" result="shape"/><feGaussianBlur result="effect1_foregroundBlur_23_31" stdDeviation="14"/></filter></defs></svg>