<svg xmlns="http://www.w3.org/2000/svg" width="312" height="109" fill="none" viewBox="0 0 312 109"><g filter="url(#filter0_d_23_52)"><path fill="#fdfdfd" d="M302.715 84.834C287.592 100.082 40.044 95.172 15.199 80.31 4.069 73.653.49 60.648 11.419 53.819c12.957-8.099 34.338 25.585 50.589 21.58 36.187-8.916 20.079-64.49 78.135-72.625 65.124-9.126 24.4 82.84 87.497 68.103 15.411-3.6 31.435-21 47.53-19.643 21.065 1.778 39.846 21.196 27.545 33.6"/><path stroke="#d3d3d3" stroke-width="2.347" d="M302.715 84.834C287.592 100.082 40.044 95.172 15.199 80.31 4.069 73.653.49 60.648 11.419 53.819c12.957-8.099 34.338 25.585 50.589 21.58 36.187-8.916 20.079-64.49 78.135-72.625 65.124-9.126 24.4 82.84 87.497 68.103 15.411-3.6 31.435-21 47.53-19.643 21.065 1.778 39.846 21.196 27.545 33.6Z"/></g><g filter="url(#filter1_f_23_52)"><path fill="#e8e8e8" d="M251.252 84.631c2.559 5.497 44.456 3.727 48.661-1.63 1.884-2.4 2.489-7.088.64-9.55-2.193-2.919-5.812 9.223-8.562 7.78-6.125-3.214-3.399-23.247-13.224-26.18-11.022-3.289-4.13 29.861-14.809 24.55-2.608-1.298-5.32-7.57-8.044-7.081-3.565.64-6.744 7.64-4.662 12.111"/><path stroke="#d3d3d3" stroke-width=".755" d="M251.252 84.631c2.559 5.497 44.456 3.727 48.661-1.63 1.884-2.4 2.489-7.088.64-9.55-2.193-2.919-5.812 9.223-8.562 7.78-6.125-3.214-3.399-23.247-13.224-26.18-11.022-3.289-4.13 29.861-14.809 24.55-2.608-1.298-5.32-7.57-8.044-7.081-3.565.64-6.744 7.64-4.662 12.111Z"/></g><g filter="url(#filter2_f_23_52)"><path fill="#e8e8e8" d="M172.437 16.487c-3.97-7.477-62.258-1.947-67.729 5.829-2.452 3.484-2.953 10.064-.195 13.361 3.271 3.91 7.43-13.283 11.37-11.472 8.774 4.034 6.437 32.165 20.351 35.536 15.609 3.78 3.577-41.937 18.854-35.31 3.732 1.617 7.972 10.165 11.734 9.284 4.924-1.154 8.844-11.146 5.615-17.228"/><path stroke="#d3d3d3" stroke-width="1.054" d="M172.437 16.487c-3.97-7.477-62.258-1.947-67.729 5.829-2.452 3.484-2.953 10.064-.195 13.361 3.271 3.91 7.43-13.283 11.37-11.472 8.774 4.034 6.437 32.165 20.351 35.536 15.609 3.78 3.577-41.937 18.854-35.31 3.732 1.617 7.972 10.165 11.734 9.284 4.924-1.154 8.844-11.146 5.615-17.228Z"/></g><g filter="url(#filter3_f_23_52)"><path fill="#e8e8e8" d="M76.116 83.345c3.502 7.707 62.019 5.782 67.96-1.642 2.661-3.326 3.568-9.863 1.018-13.324-3.024-4.104-8.234 12.8-12.056 10.75-8.509-4.568-4.441-32.5-18.121-36.723-15.346-4.737-6.155 41.636-20.996 34.08-3.624-1.845-7.329-10.638-11.138-9.99-4.986.848-9.515 10.58-6.667 16.849"/><path stroke="#d3d3d3" stroke-width="1.054" d="M76.116 83.345c3.502 7.707 62.019 5.782 67.96-1.642 2.661-3.326 3.568-9.863 1.018-13.324-3.024-4.104-8.234 12.8-12.056 10.75-8.509-4.568-4.441-32.5-18.121-36.723-15.346-4.737-6.155 41.636-20.996 34.08-3.624-1.845-7.329-10.638-11.138-9.99-4.986.848-9.515 10.58-6.667 16.849Z"/></g><g filter="url(#filter4_f_23_52)"><path fill="#e8e8e8" d="M147.367 52.285c1.969 4.334 34.87 3.251 38.21-.923 1.497-1.87 2.006-5.545.573-7.491-1.701-2.308-4.63 7.197-6.779 6.043-4.784-2.568-2.497-18.273-10.189-20.647-8.628-2.663-3.46 23.41-11.804 19.162-2.038-1.038-4.121-5.981-6.263-5.617-2.803.477-5.35 5.948-3.748 9.473"/><path stroke="#d3d3d3" stroke-width=".593" d="M147.367 52.285c1.969 4.334 34.87 3.251 38.21-.923 1.497-1.87 2.006-5.545.573-7.491-1.701-2.308-4.63 7.197-6.779 6.043-4.784-2.568-2.497-18.273-10.189-20.647-8.628-2.663-3.46 23.41-11.804 19.162-2.038-1.038-4.121-5.981-6.263-5.617-2.803.477-5.35 5.948-3.748 9.473Z"/></g><g filter="url(#filter5_f_23_52)"><path fill="#e8e8e8" d="M113.739 85.377c4.95 9.87 87.506 7.478 95.879-2.019 3.75-4.254 5.021-12.62 1.419-17.054-4.271-5.258-11.601 16.375-16.995 13.745-12.01-5.857-6.306-41.608-25.612-47.03-21.655-6.082-8.632 53.29-29.579 43.6-5.116-2.366-10.353-13.626-15.727-12.802-7.033 1.08-13.411 13.531-9.385 21.56"/><path stroke="#d3d3d3" stroke-width="1.487" d="M113.739 85.377c4.95 9.87 87.506 7.478 95.879-2.019 3.75-4.254 5.021-12.62 1.419-17.054-4.271-5.258-11.601 16.375-16.995 13.745-12.01-5.857-6.306-41.608-25.612-47.03-21.655-6.082-8.632 53.29-29.579 43.6-5.116-2.366-10.353-13.626-15.727-12.802-7.033 1.08-13.411 13.531-9.385 21.56Z"/></g><defs><filter id="filter0_d_23_52" width="311.438" height="101.621" x="0" y="0" color-interpolation-filters="sRGB" filterUnits="userSpaceOnUse"><feFlood flood-opacity="0" result="BackgroundImageFix"/><feColorMatrix in="SourceAlpha" result="hardAlpha" values="0 0 0 0 0 0 0 0 0 0 0 0 0 0 0 0 0 0 127 0"/><feOffset dy="2.674"/><feGaussianBlur stdDeviation="1.819"/><feComposite in2="hardAlpha" operator="out"/><feColorMatrix values="0 0 0 0 0 0 0 0 0 0 0 0 0 0 0 0 0 0 0.25 0"/><feBlend in2="BackgroundImageFix" result="effect1_dropShadow_23_52"/><feBlend in="SourceGraphic" in2="effect1_dropShadow_23_52" result="shape"/></filter><filter id="filter1_f_23_52" width="67.849" height="49.93" x="242.206" y="46.438" color-interpolation-filters="sRGB" filterUnits="userSpaceOnUse"><feFlood flood-opacity="0" result="BackgroundImageFix"/><feBlend in="SourceGraphic" in2="BackgroundImageFix" result="shape"/><feGaussianBlur result="effect1_foregroundBlur_23_52" stdDeviation="4.003"/></filter><filter id="filter2_f_23_52" width="94.378" height="70.427" x="90.943" y="1.242" color-interpolation-filters="sRGB" filterUnits="userSpaceOnUse"><feFlood flood-opacity="0" result="BackgroundImageFix"/><feBlend in="SourceGraphic" in2="BackgroundImageFix" result="shape"/><feGaussianBlur result="effect1_foregroundBlur_23_52" stdDeviation="5.589"/></filter><filter id="filter3_f_23_52" width="94.782" height="69.622" x="63.528" y="30.36" color-interpolation-filters="sRGB" filterUnits="userSpaceOnUse"><feFlood flood-opacity="0" result="BackgroundImageFix"/><feBlend in="SourceGraphic" in2="BackgroundImageFix" result="shape"/><feGaussianBlur result="effect1_foregroundBlur_23_52" stdDeviation="5.589"/></filter><filter id="filter4_f_23_52" width="53.291" height="39.145" x="140.289" y="22.494" color-interpolation-filters="sRGB" filterUnits="userSpaceOnUse"><feFlood flood-opacity="0" result="BackgroundImageFix"/><feBlend in="SourceGraphic" in2="BackgroundImageFix" result="shape"/><feGaussianBlur result="effect1_foregroundBlur_23_52" stdDeviation="3.143"/></filter><filter id="filter5_f_23_52" width="133.717" height="92.172" x="95.973" y="16.066" color-interpolation-filters="sRGB" filterUnits="userSpaceOnUse"><feFlood flood-opacity="0" result="BackgroundImageFix"/><feBlend in="SourceGraphic" in2="BackgroundImageFix" result="shape"/><feGaussianBlur result="effect1_foregroundBlur_23_52" stdDeviation="7.886"/></filter></defs></svg>