<svg width="1074" height="580" viewBox="0 0 1074 580" fill="none" xmlns="http://www.w3.org/2000/svg">
<path d="M429.28 14.4C433.28 15.2 435.88 18.8 437.48 25.6C439.08 33.2 440.08 37 440.68 37.4L447.08 39L457.48 39.8L469.88 39.2L479.68 37.8L482.88 42C484.08 43.6 484.68 46 484.68 49.2C484.68 51.2 484.08 53 483.08 54.4L480.48 58H470.28C468.68 58 466.48 57.6 463.88 57.2L447.48 55C445.68 55 444.28 55.4 443.28 55.8C442.08 56.2 441.28 58 440.48 61.2C439.68 64.4 439.28 79 439.28 104.6L439.48 170.4L427.08 174.4L416.88 170.6L414.88 145.4L414.28 120.4C414.08 115.6 414.48 104.2 415.28 85.8L416.28 62.4C416.28 60 416.08 57.8 415.68 55.4C413.28 52 410.48 50.2 406.88 50.2L400.08 51.2L392.08 52C386.88 52 382.28 50.6 377.88 47.6L375.48 44.2C375.28 43.8 374.88 42.6 374.48 40.4C374.48 38.4 375.08 36.8 376.28 35.6L379.48 32.8C383.28 32.8 389.08 33.4 396.88 34.2C404.68 35 410.48 35.4 414.48 35.4C415.28 35.4 415.68 35 415.88 34L415.48 31.2L415.28 28.4L415.88 24.6C416.28 23.2 416.88 21.8 418.08 20.6C418.48 19.8 420.08 19 422.88 18.2C425.48 17.4 427.68 16.2 429.28 14.4ZM559.23 16.4C557.83 12.8 561.03 9.2 568.83 5.20001C571.63 5 575.03 5.20001 579.03 6C580.83 8.00001 582.03 10.2 582.83 12.6L582.43 15.2V20.2L581.83 21L580.83 37L580.43 40L579.83 50.4C579.43 50.8 579.43 51.2 579.43 52L578.43 72.4L578.03 73.6V83.4C590.43 83.8 593.63 87 587.43 93.2C584.03 98.4 580.43 100.4 576.43 99.4L578.03 116.2C580.43 129.4 574.03 139.2 558.63 145.6C555.03 146 551.63 145 548.83 142.8L547.03 136.6L549.63 110L551.43 100.6L536.23 102.6L520.23 103L525.23 116.6L527.83 124.2C529.43 128.2 529.63 132.4 528.43 136.4C526.83 139.6 525.23 142.8 523.23 145.6C518.43 148.2 512.83 148.8 506.83 147.2C505.63 146.2 504.63 143.8 503.43 140.2L502.83 137L501.43 129.8L501.03 126.6L500.43 125L499.43 115.8L499.03 113.8V110.4C498.63 108.8 498.43 107 498.43 104.6C495.63 104.4 492.63 103.4 489.83 101.4C488.83 94.6 491.63 88.2 498.03 82.6V80.2C498.03 78 498.03 75.2 498.43 71.8V69L499.03 68.2V64.4L500.03 58.6V57L501.83 46.6L502.43 43.8L502.83 41.2C502.83 40.2 503.03 38.8 503.83 37C504.23 35.8 504.43 34.4 504.83 33L505.23 31.2C505.83 29.6 507.03 27.6 508.63 25L509.23 24.2C512.63 20.4 517.23 17.4 523.23 15.2C527.63 14.8 531.43 16 534.43 19.2C535.03 21.6 534.23 23.4 532.03 24.8L533.03 29.4L530.83 33.2C529.63 35.4 529.03 36.6 528.83 37C528.43 37.4 527.83 39.2 526.63 42.4V45.4C526.63 49.4 526.03 52.4 525.23 54.8L522.63 82.6C530.03 83.2 536.03 83.4 540.63 83C542.83 83.4 547.03 83.4 553.03 83C553.43 77.4 553.83 73.2 553.83 70.6C557.23 51.4 559.03 33.2 559.23 16.4ZM635.174 9.4L640.174 7.8C660.574 5 673.374 13.6 678.174 33.8C680.374 57.4 670.374 75.8 647.974 89L640.574 91.4C638.174 92.4 635.574 93 632.374 93.4L629.374 93.8L627.974 94.4H620.974C621.374 96.4 621.974 98.4 622.974 100.6L623.574 101.6C636.774 120.6 654.574 123.6 676.774 110.4C678.574 109.8 680.774 109.4 683.174 109.4C687.174 110.6 690.774 113.2 693.774 117.2C694.374 122 693.774 126.6 691.974 131C680.174 140.2 670.174 144.6 661.774 144.2L655.574 144L643.174 147C634.174 145.8 627.174 141.6 621.974 134.6C616.774 127.8 608.974 119.6 598.574 110C588.374 80.4 593.574 51.4 614.174 23C615.374 21.4 617.374 19.6 620.174 17.6L620.974 16.6L623.574 15.2L624.574 14.2C626.974 12.6 630.574 11 635.174 9.4ZM653.574 53.8C660.174 37.8 659.374 27.6 650.974 23C633.574 29.6 621.974 44.4 616.374 67.4C614.574 71 613.974 74.8 614.374 78.8L633.574 74.2C641.174 70.2 647.774 63.4 653.574 53.8ZM148.213 214C171.013 197.6 198.613 187.2 231.413 182.8C275.413 179.4 291.813 192.2 281.013 221.4C279.013 225 275.413 226.8 270.613 226.8C266.213 224 264.613 220 265.613 214.4L262.613 211.8C259.213 210.2 255.213 209.2 250.813 208.8L249.813 208.4H233.413L231.013 208.8L224.013 209.8H222.613L219.413 210.4C218.413 212 216.213 212.4 212.613 211.6L208.613 212.4C202.813 213.8 197.213 215.4 191.813 217L190.813 217.6C189.613 218 186.813 219 182.213 220.8L179.813 221.6L179.213 222C177.813 222.8 176.013 223.6 173.813 224.4L164.813 229.4L162.813 230.2L162.013 230.8L153.813 233L145.213 238.2L142.413 245.4L145.013 253.4C151.213 257.4 154.613 259.8 155.013 260.2L167.813 271L172.413 274C172.613 274.4 173.013 274.8 173.813 275L192.613 286.2C192.613 286.6 193.013 286.8 193.613 287.2C194.213 287.6 194.813 287.8 195.213 287.8L210.013 295.4L211.213 296.4L216.013 298.6L243.813 314.4C244.813 315.6 246.213 316.4 247.813 317.2C248.613 318 250.413 319.4 252.813 321.2L253.813 321.8L257.613 325.2C258.813 326.4 260.413 327.8 262.013 329.4L263.613 331.4L264.213 332C274.213 344 278.013 355.2 275.613 365.4L251.813 385.2L242.213 387C240.813 387 239.413 387.2 238.213 387.6H236.013L233.813 388H208.613L206.013 387.6H202.213L201.013 387.4C199.013 387.4 197.013 387.2 194.813 386.8H192.613L190.213 386.4L189.213 386.2H187.213L182.413 385.6L181.413 385.2C179.813 385.2 178.213 385 176.213 384.6L172.413 384.4L170.813 384L169.413 383.8L162.013 382.8L159.613 382.2C158.213 382.2 156.613 382 155.013 381.6L151.413 381L149.213 380.6L145.213 380L143.613 379.8C142.413 379.8 141.613 379.8 141.213 379.4C139.813 379.4 138.213 379.2 136.613 379.2C135.013 378.2 133.613 376.8 132.613 374.8C130.213 366 133.213 358.8 141.613 353.4C144.813 350.8 148.613 350.2 152.613 351.6L160.413 352.4C160.013 354.4 161.013 355.4 163.013 355.6C164.213 355.8 165.413 356 166.213 356.2C167.013 356.4 167.813 356.4 169.013 356.4L171.013 356.8C171.213 357 171.613 357 172.413 357C174.213 357.4 176.413 357.8 179.213 358L181.813 358.6C182.813 358.6 183.613 358.8 184.213 358.8C185.413 358.8 187.013 359.2 188.813 359.6C190.413 359.6 192.213 359.8 194.213 360.2C195.413 360.4 197.013 360.4 198.813 360.4L200.013 360.8C201.413 360.8 203.413 361 206.013 361.4H208.213L209.613 361.6H212.413L214.413 362H217.613L219.413 362.2H232.013L234.413 362C237.613 361.8 240.413 361.4 242.813 361C244.813 361 246.413 360.6 247.813 360.2L249.213 358.8L252.613 358.2C248.213 354.8 244.413 350.4 240.813 345.2L236.413 342L234.813 340.8L234.013 340.2L230.413 338L229.413 337.2L226.013 335.4L221.013 332.2L205.213 323.6C202.813 322.4 200.813 321.4 199.613 320.6C198.213 319.8 195.213 318.4 190.813 316C186.413 313.6 183.813 312.4 183.213 312L171.813 305.6L170.413 304.6L161.613 299.4L160.013 298.2L159.413 298L157.413 296.4L155.613 295.2C154.813 294.8 154.013 294.2 153.013 293L151.013 291.6L149.213 290.2L141.613 283C140.813 282.4 140.213 281.6 139.613 280.4L138.613 279.6L131.213 268.2C130.413 266 129.813 264.2 129.213 262.8C128.813 260.8 128.613 258.2 128.613 255V245C129.013 243.8 129.413 242.2 129.813 239.8C130.013 238.8 130.413 237.6 131.213 236.4L132.213 233.6L134.213 230.2L134.613 229.4L137.213 225.6C137.613 224.8 138.413 223.8 139.613 222.6L140.613 221.6L142.213 219.6L148.213 214ZM320.17 341.8C316.17 343.2 312.77 344.6 309.77 346C306.77 347.6 303.97 348.2 301.57 348C297.77 347.6 294.97 346.2 292.97 343.6C290.97 341 290.37 337.6 291.37 333.6C291.77 332 292.37 330.6 293.37 329C295.37 288.4 300.17 264.4 307.97 257C306.77 239.4 307.17 228.6 308.97 224.6C313.77 217.4 318.97 213.8 324.37 214.2C326.77 214.6 328.77 217 330.77 221.6C332.97 227.6 332.97 235.2 330.57 244C329.77 247 328.77 250 327.57 253.2L318.57 327.2L320.17 341.8ZM384.76 222.6L393.16 222.4C403.96 225.4 411.36 236.4 414.96 255.2C428.96 229.2 443.96 223.8 460.36 238.8C461.16 241.2 461.76 244 461.76 247.2C462.16 249.2 460.76 254.6 457.96 263.6L458.16 282.6L459.16 296.8L458.36 301.6L457.76 304.2L457.16 310.6L456.36 315L455.76 317.2L455.96 322.8L456.36 331C434.36 335.8 425.56 332 429.96 319.8C431.96 314.4 432.76 310.8 432.16 309L432.96 302.6L434.96 286.2L433.16 276.8L432.76 271.2L432.96 269.8L432.16 268.4C431.36 270.4 429.96 273 427.96 276L426.56 278C428.16 285 422.96 289.2 410.56 290.4L406.96 290L403.16 288.4C399.16 284 396.16 278.2 394.16 271.2C392.76 268.8 391.56 265.6 390.56 261.2L388.76 256.2L388.56 255C386.96 250.8 384.56 246.8 381.16 242.8C379.76 245.2 378.76 247.8 378.36 251L377.76 252.2C377.56 253.8 377.16 255.4 376.36 257.4L375.16 266L374.56 268.6L372.36 293.2L372.76 295L372.16 301.4L371.36 304C367.16 315.4 359.36 320.8 347.96 320.4C345.96 319.6 344.56 317.8 343.56 315.2C342.96 312.4 342.96 308.6 343.76 304.2L345.76 282.6L348.76 273.8C350.56 269.8 350.76 266.8 349.36 264.6V259.8L352.16 255.6V253.2L352.56 249.2V247.4L359.36 238.4L364.56 232.6L370.36 227.2L375.96 224L384.76 222.6ZM532.034 207.2L532.834 206.6C570.434 205.2 584.634 225.6 575.434 267.8C567.034 291.6 548.634 303 520.634 302.2C520.234 306.8 520.834 312.6 522.434 319.8L523.034 322.4C522.234 326.2 520.234 329.4 517.034 332C501.634 337.8 494.034 327.6 494.434 301.2C474.434 300.8 465.634 294.2 467.834 281.4C473.034 272.6 482.034 270.6 494.834 275.4C494.834 256.8 500.034 238.8 510.834 221.2L514.434 217L517.034 214.8L518.834 213C522.434 210.4 526.834 208.4 532.034 207.2ZM555.634 254.2C560.034 237.6 555.434 228.2 541.434 226C539.634 226.4 537.634 227.4 535.234 228.8C525.034 242 519.634 258.4 519.034 277.8C538.834 280 551.034 272.2 555.634 254.2ZM660.077 198.6L664.477 196.8C675.877 195.4 681.277 200.6 680.677 212.6C679.477 215.4 677.677 217.6 675.477 219.2C672.477 220.8 668.877 222 664.477 223.2C664.077 223.6 663.677 223.8 662.877 224.2C662.077 224.6 661.477 224.6 660.877 224.6L654.677 226.8L653.077 227.6L649.877 229C647.077 229.8 644.277 231.4 641.077 233.4L639.277 234.2C637.677 235.8 636.277 237.6 634.877 240L634.477 248.2L634.877 251.4L637.677 261.4C638.077 262.6 638.477 264.2 638.877 266.2L640.277 269.8L641.477 275.6L642.477 277.2C642.677 279.4 643.277 281.6 644.277 283.8C644.277 285.8 644.677 287.6 645.477 289.6L645.877 292.6L646.477 296.2L646.877 298.4L647.277 300.6V308.6L646.877 311.2L646.477 314.2L645.077 318.2C635.677 334.2 617.677 339.8 590.877 335C580.277 327.8 580.477 320 591.477 311.6L598.877 311.2C606.477 312.8 614.077 311.8 621.677 308.6C622.277 306.6 622.477 304.4 622.277 302L615.677 276L615.077 274.2L614.677 272.4L614.277 270.6L612.877 267.2L612.477 264.6L610.277 254.8L609.877 252.6V249.2L609.477 247.8C609.477 245.6 609.477 242.6 609.877 239V237.8L610.677 234.2L611.277 232L612.477 229C612.677 228.2 613.277 227 614.277 225.4L617.277 220.6C628.077 210.4 642.477 203 660.077 198.6ZM712.402 244C722.802 244 732.602 250.2 741.602 262.4C750.402 274.6 755.002 288.6 755.002 304.4C755.002 317.6 747.402 329 732.202 338.4C718.602 346.6 705.002 350.8 691.002 350.8C682.202 350.8 675.402 345.6 671.002 335.2C667.802 327.6 666.202 318.4 666.202 308C666.202 292.2 669.802 278.2 677.002 265.8C685.602 251.4 697.402 244.2 712.402 244ZM691.002 308C690.802 308.6 690.602 309 690.602 309.2C690.602 309.4 690.002 310.4 688.802 312.4C687.602 314.4 687.002 316 687.002 317.6C687.002 320.2 688.202 323 691.002 325.8L696.602 328.8C698.202 329.6 700.602 330.2 704.202 330.2L710.602 329.6C713.802 329.4 718.402 325.6 724.402 318.4C730.402 311.2 733.602 303 733.802 293.8C733.802 287 731.802 280.6 728.202 274.6C723.802 268 718.202 264.6 711.602 264.6L709.002 264.8C703.002 264.8 698.602 269.2 695.602 278C692.802 286.4 691.202 296.4 691.002 308ZM820.806 209.4C823.206 207.8 825.006 206.6 826.406 205.8L830.006 205L833.406 205.6L837.806 208.6L845.006 219C855.406 233.8 860.006 256 858.406 286C856.406 320 845.406 333.4 825.606 326L821.806 322C819.806 313.2 814.606 305.6 806.206 299C805.406 300.8 804.806 302.8 804.806 304.8L804.206 306.2C804.206 308.6 803.806 311.6 802.806 314.8L801.406 324.2L800.206 329L797.606 334.6L795.806 337.2C792.206 344.8 787.406 348.2 781.806 347.8C774.206 347 769.806 343 768.606 335.8C768.606 332.2 769.606 328.4 771.606 324L773.206 320C773.206 318 774.006 315.2 775.206 312C783.606 294.4 790.806 281.8 796.406 274.6C808.406 271.4 819.606 274.2 830.406 283C842.206 275 840.406 256.6 825.206 228.2L818.806 216.2L820.806 209.4ZM941.523 198.6L945.923 196.8C957.323 195.4 962.723 200.6 962.123 212.6C960.923 215.4 959.123 217.6 956.923 219.2C953.923 220.8 950.323 222 945.923 223.2C945.523 223.6 945.123 223.8 944.323 224.2C943.523 224.6 942.923 224.6 942.323 224.6L936.123 226.8L934.523 227.6L931.323 229C928.523 229.8 925.723 231.4 922.523 233.4L920.723 234.2C919.123 235.8 917.723 237.6 916.323 240L915.923 248.2L916.323 251.4L919.123 261.4C919.523 262.6 919.923 264.2 920.323 266.2L921.723 269.8L922.923 275.6L923.923 277.2C924.123 279.4 924.723 281.6 925.723 283.8C925.723 285.8 926.123 287.6 926.923 289.6L927.323 292.6L927.923 296.2L928.323 298.4L928.723 300.6V308.6L928.323 311.2L927.923 314.2L926.523 318.2C917.123 334.2 899.123 339.8 872.323 335C861.723 327.8 861.923 320 872.923 311.6L880.323 311.2C887.923 312.8 895.523 311.8 903.123 308.6C903.723 306.6 903.923 304.4 903.723 302L897.123 276L896.523 274.2L896.123 272.4L895.723 270.6L894.323 267.2L893.923 264.6L891.723 254.8L891.323 252.6V249.2L890.923 247.8C890.923 245.6 890.923 242.6 891.323 239V237.8L892.123 234.2L892.723 232L893.923 229C894.123 228.2 894.723 227 895.723 225.4L898.723 220.6C909.523 210.4 923.923 203 941.523 198.6ZM465.178 436.2C473.778 436.8 481.178 445.4 487.178 462C493.778 480.4 497.778 495 499.378 505.4L508.578 569L506.978 573.4C506.178 575.4 505.378 577 504.178 577.8C502.978 578.6 501.978 579.2 500.778 579.4L497.778 579.6C495.778 579.6 494.378 579.2 493.578 578.8L490.178 577.6L490.778 569.6L491.378 561.8C492.178 553.8 491.378 548 489.378 544C487.378 540 482.778 537.8 475.578 537.2C455.178 535.8 442.178 536 436.978 538C431.778 540 427.378 544.6 424.178 551.8C420.978 559 415.578 565.4 407.978 571L404.378 571.8H400.378C398.378 571.8 397.178 571 396.578 569.8C396.178 568.8 396.178 567.4 396.378 565.6C396.578 562.2 397.178 558.8 398.178 555.2C399.378 551 400.378 547.8 401.378 545.4C404.578 538.4 410.778 521.8 419.778 495.8C426.978 474.8 433.778 459 440.378 448.4C445.978 439.6 454.178 435.6 465.178 436.2ZM437.778 517.8L444.978 517H449.378L460.978 518.8C462.978 519.2 465.778 518.6 469.378 517.4C472.378 516.6 476.578 514.2 481.778 510.4C481.378 501.6 479.378 490.8 475.778 477.8C472.178 465.4 469.378 458.8 467.178 458.4L464.978 458H463.778C456.178 457.6 451.178 465.6 448.378 482C445.578 498.6 441.978 510.6 437.778 517.8ZM577.249 408.2L578.049 407.6C615.649 406.2 629.849 426.6 620.649 468.8C612.249 492.6 593.849 504 565.849 503.2C565.449 507.8 566.049 513.6 567.649 520.8L568.249 523.4C567.449 527.2 565.449 530.4 562.249 533C546.849 538.8 539.249 528.6 539.649 502.2C519.649 501.8 510.849 495.2 513.049 482.4C518.249 473.6 527.249 471.6 540.049 476.4C540.049 457.8 545.249 439.8 556.049 422.2L559.649 418L562.249 415.8L564.049 414C567.649 411.4 572.049 409.4 577.249 408.2ZM600.849 455.2C605.249 438.6 600.649 429.2 586.649 427C584.849 427.4 582.849 428.4 580.449 429.8C570.249 443 564.849 459.4 564.249 478.8C584.049 481 596.249 473.2 600.849 455.2ZM660.892 542.8C656.892 544.2 653.492 545.6 650.492 547C647.492 548.6 644.692 549.2 642.292 549C638.492 548.6 635.692 547.2 633.692 544.6C631.692 542 631.092 538.6 632.092 534.6C632.492 533 633.092 531.6 634.092 530C636.092 489.4 640.892 465.4 648.692 458C647.492 440.4 647.892 429.6 649.692 425.6C654.492 418.4 659.692 414.8 665.092 415.2C667.492 415.6 669.492 418 671.492 422.6C673.692 428.6 673.692 436.2 671.292 445C670.492 448 669.492 451 668.292 454.2L659.292 528.2L660.892 542.8Z" fill="#867749"/>
<path d="M436.022 9.40001C440.022 10.2 442.622 13.8 444.222 20.6C445.822 28.2 446.822 32 447.422 32.4L453.822 34L464.222 34.8L476.622 34.2L486.422 32.8L489.622 37C490.822 38.6 491.422 41 491.422 44.2C491.422 46.2 490.822 48 489.822 49.4L487.222 53H477.022C475.422 53 473.222 52.6 470.622 52.2L454.222 50C452.422 50 451.022 50.4 450.022 50.8C448.822 51.2 448.022 53 447.222 56.2C446.422 59.4 446.022 74 446.022 99.6L446.222 165.4L433.822 169.4L423.622 165.6L421.622 140.4L421.022 115.4C420.822 110.6 421.222 99.2 422.022 80.8L423.022 57.4C423.022 55 422.822 52.8 422.422 50.4C420.022 47 417.222 45.2 413.622 45.2L406.822 46.2L398.822 47C393.622 47 389.022 45.6 384.622 42.6L382.222 39.2C382.022 38.8 381.622 37.6 381.222 35.4C381.222 33.4 381.822 31.8 383.022 30.6L386.222 27.8C390.022 27.8 395.822 28.4 403.622 29.2C411.422 30 417.222 30.4 421.222 30.4C422.022 30.4 422.422 30 422.622 29L422.222 26.2L422.022 23.4L422.622 19.6C423.022 18.2 423.622 16.8 424.822 15.6C425.222 14.8 426.822 14 429.622 13.2C432.222 12.4 434.422 11.2 436.022 9.40001ZM565.972 11.4C564.572 7.8 567.772 4.2 575.572 0.200006C578.372 -3.33786e-06 581.772 0.200006 585.772 0.999996C587.572 3.00001 588.772 5.2 589.572 7.60001L589.172 10.2V15.2L588.572 16L587.572 32L587.172 35L586.572 45.4C586.172 45.8 586.172 46.2 586.172 47L585.172 67.4L584.772 68.6V78.4C597.172 78.8 600.372 82 594.172 88.2C590.772 93.4 587.172 95.4 583.172 94.4L584.772 111.2C587.172 124.4 580.772 134.2 565.372 140.6C561.772 141 558.372 140 555.572 137.8L553.772 131.6L556.372 105L558.172 95.6L542.972 97.6L526.972 98L531.972 111.6L534.572 119.2C536.172 123.2 536.372 127.4 535.172 131.4C533.572 134.6 531.972 137.8 529.972 140.6C525.172 143.2 519.572 143.8 513.572 142.2C512.372 141.2 511.372 138.8 510.172 135.2L509.572 132L508.172 124.8L507.772 121.6L507.172 120L506.172 110.8L505.772 108.8V105.4C505.372 103.8 505.172 102 505.172 99.6C502.372 99.4 499.372 98.4 496.572 96.4C495.572 89.6 498.372 83.2 504.772 77.6V75.2C504.772 73 504.772 70.2 505.172 66.8V64L505.772 63.2V59.4L506.772 53.6V52L508.572 41.6L509.172 38.8L509.572 36.2C509.572 35.2 509.772 33.8 510.572 32C510.972 30.8 511.172 29.4 511.572 28L511.972 26.2C512.572 24.6 513.772 22.6 515.372 20L515.972 19.2C519.372 15.4 523.972 12.4 529.972 10.2C534.372 9.8 538.172 11 541.172 14.2C541.772 16.6 540.972 18.4 538.772 19.8L539.772 24.4L537.572 28.2C536.372 30.4 535.772 31.6 535.572 32C535.172 32.4 534.572 34.2 533.372 37.4V40.4C533.372 44.4 532.772 47.4 531.972 49.8L529.372 77.6C536.772 78.2 542.772 78.4 547.372 78C549.572 78.4 553.772 78.4 559.772 78C560.172 72.4 560.572 68.2 560.572 65.6C563.972 46.4 565.772 28.2 565.972 11.4ZM641.916 4.4L646.916 2.8C667.316 -3.33786e-06 680.116 8.60001 684.916 28.8C687.116 52.4 677.116 70.8 654.716 84L647.316 86.4C644.916 87.4 642.316 88 639.116 88.4L636.116 88.8L634.716 89.4H627.716C628.116 91.4 628.716 93.4 629.716 95.6L630.316 96.6C643.516 115.6 661.316 118.6 683.516 105.4C685.316 104.8 687.516 104.4 689.916 104.4C693.916 105.6 697.516 108.2 700.516 112.2C701.116 117 700.516 121.6 698.716 126C686.916 135.2 676.916 139.6 668.516 139.2L662.316 139L649.916 142C640.916 140.8 633.916 136.6 628.716 129.6C623.516 122.8 615.716 114.6 605.316 105C595.116 75.4 600.316 46.4 620.916 18C622.116 16.4 624.116 14.6 626.916 12.6L627.716 11.6L630.316 10.2L631.316 9.2C633.716 7.60001 637.316 6 641.916 4.4ZM660.316 48.8C666.916 32.8 666.116 22.6 657.716 18C640.316 24.6 628.716 39.4 623.116 62.4C621.316 66 620.716 69.8 621.116 73.8L640.316 69.2C647.916 65.2 654.516 58.4 660.316 48.8ZM154.956 209C177.756 192.6 205.356 182.2 238.156 177.8C282.156 174.4 298.556 187.2 287.756 216.4C285.756 220 282.156 221.8 277.356 221.8C272.956 219 271.356 215 272.356 209.4L269.356 206.8C265.956 205.2 261.956 204.2 257.556 203.8L256.556 203.4H240.156L237.756 203.8L230.756 204.8H229.356L226.156 205.4C225.156 207 222.956 207.4 219.356 206.6L215.356 207.4C209.556 208.8 203.956 210.4 198.556 212L197.556 212.6C196.356 213 193.556 214 188.956 215.8L186.556 216.6L185.956 217C184.556 217.8 182.756 218.6 180.556 219.4L171.556 224.4L169.556 225.2L168.756 225.8L160.556 228L151.956 233.2L149.156 240.4L151.756 248.4C157.956 252.4 161.356 254.8 161.756 255.2L174.556 266L179.156 269C179.356 269.4 179.756 269.8 180.556 270L199.356 281.2C199.356 281.6 199.756 281.8 200.356 282.2C200.956 282.6 201.556 282.8 201.956 282.8L216.756 290.4L217.956 291.4L222.756 293.6L250.556 309.4C251.556 310.6 252.956 311.4 254.556 312.2C255.356 313 257.156 314.4 259.556 316.2L260.556 316.8L264.356 320.2C265.556 321.4 267.156 322.8 268.756 324.4L270.356 326.4L270.956 327C280.956 339 284.756 350.2 282.356 360.4L258.556 380.2L248.956 382C247.556 382 246.156 382.2 244.956 382.6H242.756L240.556 383H215.356L212.756 382.6H208.956L207.756 382.4C205.756 382.4 203.756 382.2 201.556 381.8H199.356L196.956 381.4L195.956 381.2H193.956L189.156 380.6L188.156 380.2C186.556 380.2 184.956 380 182.956 379.6L179.156 379.4L177.556 379L176.156 378.8L168.756 377.8L166.356 377.2C164.956 377.2 163.356 377 161.756 376.6L158.156 376L155.956 375.6L151.956 375L150.356 374.8C149.156 374.8 148.356 374.8 147.956 374.4C146.556 374.4 144.956 374.2 143.356 374.2C141.756 373.2 140.356 371.8 139.356 369.8C136.956 361 139.956 353.8 148.356 348.4C151.556 345.8 155.356 345.2 159.356 346.6L167.156 347.4C166.756 349.4 167.756 350.4 169.756 350.6C170.956 350.8 172.156 351 172.956 351.2C173.756 351.4 174.556 351.4 175.756 351.4L177.756 351.8C177.956 352 178.356 352 179.156 352C180.956 352.4 183.156 352.8 185.956 353L188.556 353.6C189.556 353.6 190.356 353.8 190.956 353.8C192.156 353.8 193.756 354.2 195.556 354.6C197.156 354.6 198.956 354.8 200.956 355.2C202.156 355.4 203.756 355.4 205.556 355.4L206.756 355.8C208.156 355.8 210.156 356 212.756 356.4H214.956L216.356 356.6H219.156L221.156 357H224.356L226.156 357.2H238.756L241.156 357C244.356 356.8 247.156 356.4 249.556 356C251.556 356 253.156 355.6 254.556 355.2L255.956 353.8L259.356 353.2C254.956 349.8 251.156 345.4 247.556 340.2L243.156 337L241.556 335.8L240.756 335.2L237.156 333L236.156 332.2L232.756 330.4L227.756 327.2L211.956 318.6C209.556 317.4 207.556 316.4 206.356 315.6C204.956 314.8 201.956 313.4 197.556 311C193.156 308.6 190.556 307.4 189.956 307L178.556 300.6L177.156 299.6L168.356 294.4L166.756 293.2L166.156 293L164.156 291.4L162.356 290.2C161.556 289.8 160.756 289.2 159.756 288L157.756 286.6L155.956 285.2L148.356 278C147.556 277.4 146.956 276.6 146.356 275.4L145.356 274.6L137.956 263.2C137.156 261 136.556 259.2 135.956 257.8C135.556 255.8 135.356 253.2 135.356 250V240C135.756 238.8 136.156 237.2 136.556 234.8C136.756 233.8 137.156 232.6 137.956 231.4L138.956 228.6L140.956 225.2L141.356 224.4L143.956 220.6C144.356 219.8 145.156 218.8 146.356 217.6L147.356 216.6L148.956 214.6L154.956 209ZM326.912 336.8C322.912 338.2 319.512 339.6 316.512 341C313.512 342.6 310.712 343.2 308.312 343C304.512 342.6 301.712 341.2 299.712 338.6C297.712 336 297.112 332.6 298.112 328.6C298.512 327 299.112 325.6 300.112 324C302.112 283.4 306.912 259.4 314.712 252C313.512 234.4 313.912 223.6 315.712 219.6C320.512 212.4 325.712 208.8 331.112 209.2C333.512 209.6 335.512 212 337.512 216.6C339.712 222.6 339.712 230.2 337.312 239C336.512 242 335.512 245 334.312 248.2L325.312 322.2L326.912 336.8ZM391.502 217.6L399.902 217.4C410.702 220.4 418.102 231.4 421.702 250.2C435.702 224.2 450.702 218.8 467.102 233.8C467.902 236.2 468.502 239 468.502 242.2C468.902 244.2 467.502 249.6 464.702 258.6L464.902 277.6L465.902 291.8L465.102 296.6L464.502 299.2L463.902 305.6L463.102 310L462.502 312.2L462.702 317.8L463.102 326C441.102 330.8 432.302 327 436.702 314.8C438.702 309.4 439.502 305.8 438.902 304L439.702 297.6L441.702 281.2L439.902 271.8L439.502 266.2L439.702 264.8L438.902 263.4C438.102 265.4 436.702 268 434.702 271L433.302 273C434.902 280 429.702 284.2 417.302 285.4L413.702 285L409.902 283.4C405.902 279 402.902 273.2 400.902 266.2C399.502 263.8 398.302 260.6 397.302 256.2L395.502 251.2L395.302 250C393.702 245.8 391.302 241.8 387.902 237.8C386.502 240.2 385.502 242.8 385.102 246L384.502 247.2C384.302 248.8 383.902 250.4 383.102 252.4L381.902 261L381.302 263.6L379.102 288.2L379.502 290L378.902 296.4L378.102 299C373.902 310.4 366.102 315.8 354.702 315.4C352.702 314.6 351.302 312.8 350.302 310.2C349.702 307.4 349.702 303.6 350.502 299.2L352.502 277.6L355.502 268.8C357.302 264.8 357.502 261.8 356.102 259.6V254.8L358.902 250.6V248.2L359.302 244.2V242.4L366.102 233.4L371.302 227.6L377.102 222.2L382.702 219L391.502 217.6ZM538.776 202.2L539.576 201.6C577.176 200.2 591.376 220.6 582.176 262.8C573.776 286.6 555.376 298 527.376 297.2C526.976 301.8 527.576 307.6 529.176 314.8L529.776 317.4C528.976 321.2 526.976 324.4 523.776 327C508.376 332.8 500.776 322.6 501.176 296.2C481.176 295.8 472.376 289.2 474.576 276.4C479.776 267.6 488.776 265.6 501.576 270.4C501.576 251.8 506.776 233.8 517.576 216.2L521.176 212L523.776 209.8L525.576 208C529.176 205.4 533.576 203.4 538.776 202.2ZM562.376 249.2C566.776 232.6 562.176 223.2 548.176 221C546.376 221.4 544.376 222.4 541.976 223.8C531.776 237 526.376 253.4 525.776 272.8C545.576 275 557.776 267.2 562.376 249.2ZM666.82 193.6L671.22 191.8C682.62 190.4 688.02 195.6 687.42 207.6C686.22 210.4 684.42 212.6 682.22 214.2C679.22 215.8 675.62 217 671.22 218.2C670.82 218.6 670.42 218.8 669.62 219.2C668.82 219.6 668.22 219.6 667.62 219.6L661.42 221.8L659.82 222.6L656.62 224C653.82 224.8 651.02 226.4 647.82 228.4L646.02 229.2C644.42 230.8 643.02 232.6 641.62 235L641.22 243.2L641.62 246.4L644.42 256.4C644.82 257.6 645.22 259.2 645.62 261.2L647.02 264.8L648.22 270.6L649.22 272.2C649.42 274.4 650.02 276.6 651.02 278.8C651.02 280.8 651.42 282.6 652.22 284.6L652.62 287.6L653.22 291.2L653.62 293.4L654.02 295.6V303.6L653.62 306.2L653.22 309.2L651.82 313.2C642.42 329.2 624.42 334.8 597.62 330C587.02 322.8 587.22 315 598.22 306.6L605.62 306.2C613.22 307.8 620.82 306.8 628.42 303.6C629.02 301.6 629.22 299.4 629.02 297L622.42 271L621.82 269.2L621.42 267.4L621.02 265.6L619.62 262.2L619.22 259.6L617.02 249.8L616.62 247.6V244.2L616.22 242.8C616.22 240.6 616.22 237.6 616.62 234V232.8L617.42 229.2L618.02 227L619.22 224C619.42 223.2 620.02 222 621.02 220.4L624.02 215.6C634.82 205.4 649.22 198 666.82 193.6ZM719.145 239C729.545 239 739.345 245.2 748.345 257.4C757.145 269.6 761.745 283.6 761.745 299.4C761.745 312.6 754.145 324 738.945 333.4C725.345 341.6 711.745 345.8 697.745 345.8C688.945 345.8 682.145 340.6 677.745 330.2C674.545 322.6 672.945 313.4 672.945 303C672.945 287.2 676.545 273.2 683.745 260.8C692.345 246.4 704.145 239.2 719.145 239ZM697.745 303C697.545 303.6 697.345 304 697.345 304.2C697.345 304.4 696.745 305.4 695.545 307.4C694.345 309.4 693.745 311 693.745 312.6C693.745 315.2 694.945 318 697.745 320.8L703.345 323.8C704.945 324.6 707.345 325.2 710.945 325.2L717.345 324.6C720.545 324.4 725.145 320.6 731.145 313.4C737.145 306.2 740.345 298 740.545 288.8C740.545 282 738.545 275.6 734.945 269.6C730.545 263 724.945 259.6 718.345 259.6L715.745 259.8C709.745 259.8 705.345 264.2 702.345 273C699.545 281.4 697.945 291.4 697.745 303ZM827.548 204.4C829.948 202.8 831.748 201.6 833.148 200.8L836.748 200L840.148 200.6L844.548 203.6L851.748 214C862.148 228.8 866.748 251 865.148 281C863.148 315 852.148 328.4 832.348 321L828.548 317C826.548 308.2 821.348 300.6 812.948 294C812.148 295.8 811.548 297.8 811.548 299.8L810.948 301.2C810.948 303.6 810.548 306.6 809.548 309.8L808.148 319.2L806.948 324L804.348 329.6L802.548 332.2C798.948 339.8 794.148 343.2 788.548 342.8C780.948 342 776.548 338 775.348 330.8C775.348 327.2 776.348 323.4 778.348 319L779.948 315C779.948 313 780.748 310.2 781.948 307C790.348 289.4 797.548 276.8 803.148 269.6C815.148 266.4 826.348 269.2 837.148 278C848.948 270 847.148 251.6 831.948 223.2L825.548 211.2L827.548 204.4ZM948.265 193.6L952.665 191.8C964.065 190.4 969.465 195.6 968.865 207.6C967.665 210.4 965.865 212.6 963.665 214.2C960.665 215.8 957.065 217 952.665 218.2C952.265 218.6 951.865 218.8 951.065 219.2C950.265 219.6 949.665 219.6 949.065 219.6L942.865 221.8L941.265 222.6L938.065 224C935.265 224.8 932.465 226.4 929.265 228.4L927.465 229.2C925.865 230.8 924.465 232.6 923.065 235L922.665 243.2L923.065 246.4L925.865 256.4C926.265 257.6 926.665 259.2 927.065 261.2L928.465 264.8L929.665 270.6L930.665 272.2C930.865 274.4 931.465 276.6 932.465 278.8C932.465 280.8 932.865 282.6 933.665 284.6L934.065 287.6L934.665 291.2L935.065 293.4L935.465 295.6V303.6L935.065 306.2L934.665 309.2L933.265 313.2C923.865 329.2 905.865 334.8 879.065 330C868.465 322.8 868.665 315 879.665 306.6L887.065 306.2C894.665 307.8 902.265 306.8 909.865 303.6C910.465 301.6 910.665 299.4 910.465 297L903.865 271L903.265 269.2L902.865 267.4L902.465 265.6L901.065 262.2L900.665 259.6L898.465 249.8L898.065 247.6V244.2L897.665 242.8C897.665 240.6 897.665 237.6 898.065 234V232.8L898.865 229.2L899.465 227L900.665 224C900.865 223.2 901.465 222 902.465 220.4L905.465 215.6C916.265 205.4 930.665 198 948.265 193.6ZM471.92 431.2C480.52 431.8 487.92 440.4 493.92 457C500.52 475.4 504.52 490 506.12 500.4L515.32 564L513.72 568.4C512.92 570.4 512.12 572 510.92 572.8C509.72 573.6 508.72 574.2 507.52 574.4L504.52 574.6C502.52 574.6 501.12 574.2 500.32 573.8L496.92 572.6L497.52 564.6L498.12 556.8C498.92 548.8 498.12 543 496.12 539C494.12 535 489.52 532.8 482.32 532.2C461.92 530.8 448.92 531 443.72 533C438.52 535 434.12 539.6 430.92 546.8C427.72 554 422.32 560.4 414.72 566L411.12 566.8H407.12C405.12 566.8 403.92 566 403.32 564.8C402.92 563.8 402.92 562.4 403.12 560.6C403.32 557.2 403.92 553.8 404.92 550.2C406.12 546 407.12 542.8 408.12 540.4C411.32 533.4 417.52 516.8 426.52 490.8C433.72 469.8 440.52 454 447.12 443.4C452.72 434.6 460.92 430.6 471.92 431.2ZM444.52 512.8L451.72 512H456.12L467.72 513.8C469.72 514.2 472.52 513.6 476.12 512.4C479.12 511.6 483.32 509.2 488.52 505.4C488.12 496.6 486.12 485.8 482.52 472.8C478.92 460.4 476.12 453.8 473.92 453.4L471.72 453H470.52C462.92 452.6 457.92 460.6 455.12 477C452.32 493.6 448.72 505.6 444.52 512.8ZM583.991 403.2L584.791 402.6C622.391 401.2 636.591 421.6 627.391 463.8C618.991 487.6 600.591 499 572.591 498.2C572.191 502.8 572.791 508.6 574.391 515.8L574.991 518.4C574.191 522.2 572.191 525.4 568.991 528C553.591 533.8 545.991 523.6 546.391 497.2C526.391 496.8 517.591 490.2 519.791 477.4C524.991 468.6 533.991 466.6 546.791 471.4C546.791 452.8 551.991 434.8 562.791 417.2L566.391 413L568.991 410.8L570.791 409C574.391 406.4 578.791 404.4 583.991 403.2ZM607.591 450.2C611.991 433.6 607.391 424.2 593.391 422C591.591 422.4 589.591 423.4 587.191 424.8C576.991 438 571.591 454.4 570.991 473.8C590.791 476 602.991 468.2 607.591 450.2ZM667.635 537.8C663.635 539.2 660.235 540.6 657.235 542C654.235 543.6 651.435 544.2 649.035 544C645.235 543.6 642.435 542.2 640.435 539.6C638.435 537 637.835 533.6 638.835 529.6C639.235 528 639.835 526.6 640.835 525C642.835 484.4 647.635 460.4 655.435 453C654.235 435.4 654.635 424.6 656.435 420.6C661.235 413.4 666.435 409.8 671.835 410.2C674.235 410.6 676.235 413 678.235 417.6C680.435 423.6 680.435 431.2 678.035 440C677.235 443 676.235 446 675.035 449.2L666.035 523.2L667.635 537.8Z" fill="#FFCD1B"/>
</svg>
