<svg xmlns="http://www.w3.org/2000/svg" width="1074" height="580" fill="none" viewBox="0 0 1074 580"><path fill="#867749" d="M429.28 14.4c4 .8 6.6 4.4 8.2 11.2 1.6 7.6 2.6 11.4 3.2 11.8l6.4 1.6 10.4.8 12.4-.6 9.8-1.4 3.2 4.2q1.8 2.4 1.8 7.2c0 2-.6 3.8-1.6 5.2l-2.6 3.6h-10.2c-1.6 0-3.8-.4-6.4-.8l-16.4-2.2c-1.8 0-3.2.4-4.2.8-1.2.4-2 2.2-2.8 5.4s-1.2 17.8-1.2 43.4l.2 65.8-12.4 4-10.2-3.8-2-25.2-.6-25c-.2-4.8.2-16.2 1-34.6l1-23.4c0-2.4-.2-4.6-.6-7-2.4-3.4-5.2-5.2-8.8-5.2l-6.8 1-8 .8c-5.2 0-9.8-1.4-14.2-4.4l-2.4-3.4c-.2-.4-.6-1.6-1-3.8q0-3 1.8-4.8l3.2-2.8c3.8 0 9.6.6 17.4 1.4s13.6 1.2 17.6 1.2c.8 0 1.2-.4 1.4-1.4l-.4-2.8-.2-2.8.6-3.8c.4-1.4 1-2.8 2.2-4q.6-1.2 4.8-2.4c2.6-.8 4.8-2 6.4-3.8m129.95 2c-1.4-3.6 1.8-7.2 9.6-11.2 2.8-.2 6.2 0 10.2.8 1.8 2 3 4.2 3.8 6.6l-.4 2.6v5l-.6.8-1 16-.4 3-.6 10.4c-.4.4-.4.8-.4 1.6l-1 20.4-.4 1.2v9.8c12.4.4 15.6 3.6 9.4 9.8-3.4 5.2-7 7.2-11 6.2l1.6 16.8c2.4 13.2-4 23-19.4 29.4-3.6.4-7-.6-9.8-2.8l-1.8-6.2 2.6-26.6 1.8-9.4-15.2 2-16 .4 5 13.6 2.6 7.6c1.6 4 1.8 8.2.6 12.2-1.6 3.2-3.2 6.4-5.2 9.2-4.8 2.6-10.4 3.2-16.4 1.6-1.2-1-2.2-3.4-3.4-7l-.6-3.2-1.4-7.2-.4-3.2-.6-1.6-1-9.2-.4-2v-3.4c-.4-1.6-.6-3.4-.6-5.8-2.8-.2-5.8-1.2-8.6-3.2-1-6.8 1.8-13.2 8.2-18.8v-2.4c0-2.2 0-5 .4-8.4V69l.6-.8v-3.8l1-5.8V57l1.8-10.4.6-2.8.4-2.6c0-1 .2-2.4 1-4.2.4-1.2.6-2.6 1-4l.4-1.8c.6-1.6 1.8-3.6 3.4-6.2l.6-.8c3.4-3.8 8-6.8 14-9 4.4-.4 8.2.8 11.2 4 .6 2.4-.2 4.2-2.4 5.6l1 4.6-2.2 3.8c-1.2 2.2-1.8 3.4-2 3.8-.4.4-1 2.2-2.2 5.4v3c0 4-.6 7-1.4 9.4l-2.6 27.8c7.4.6 13.4.8 18 .4 2.2.4 6.4.4 12.4 0 .4-5.6.8-9.8.8-12.4 3.4-19.2 5.2-37.4 5.4-54.2m75.944-7 5-1.6c20.4-2.8 33.2 5.8 38 26 2.2 23.6-7.8 42-30.2 55.2l-7.4 2.4c-2.4 1-5 1.6-8.2 2l-3 .4-1.4.6h-7c.4 2 1 4 2 6.2l.6 1c13.2 19 31 22 53.2 8.8 1.8-.6 4-1 6.4-1 4 1.2 7.6 3.8 10.6 7.8q.9 7.2-1.8 13.8c-11.8 9.2-21.8 13.6-30.2 13.2l-6.2-.2-12.4 3c-9-1.2-16-5.4-21.2-12.4q-7.8-10.2-23.4-24.6-15.3-44.4 15.6-87 1.8-2.4 6-5.4l.8-1 2.6-1.4 1-1c2.4-1.6 6-3.2 10.6-4.8m18.4 44.4c6.6-16 5.8-26.2-2.6-30.8-17.4 6.6-29 21.4-34.6 44.4-1.8 3.6-2.4 7.4-2 11.4l19.2-4.6c7.6-4 14.2-10.8 20-20.4M148.213 214c22.8-16.4 50.4-26.8 83.2-31.2 44-3.4 60.4 9.4 49.6 38.6-2 3.6-5.6 5.4-10.4 5.4-4.4-2.8-6-6.8-5-12.4l-3-2.6c-3.4-1.6-7.4-2.6-11.8-3l-1-.4h-16.4l-2.4.4-7 1h-1.4l-3.2.6c-1 1.6-3.2 2-6.8 1.2l-4 .8c-5.8 1.4-11.4 3-16.8 4.6l-1 .6c-1.2.4-4 1.4-8.6 3.2l-2.4.8-.6.4q-2.1 1.2-5.4 2.4l-9 5-2 .8-.8.6-8.2 2.2-8.6 5.2-2.8 7.2 2.6 8c6.2 4 9.6 6.4 10 6.8l12.8 10.8 4.6 3c.2.4.6.8 1.4 1l18.8 11.2c0 .4.4.6 1 1s1.2.6 1.6.6l14.8 7.6 1.2 1 4.8 2.2 27.8 15.8c1 1.2 2.4 2 4 2.8.8.8 2.6 2.2 5 4l1 .6 3.8 3.4c1.2 1.2 2.8 2.6 4.4 4.2l1.6 2 .6.6c10 12 13.8 23.2 11.4 33.4l-23.8 19.8-9.6 1.8c-1.4 0-2.8.2-4 .6h-2.2l-2.2.4h-25.2l-2.6-.4h-3.8l-1.2-.2c-2 0-4-.2-6.2-.6h-2.2l-2.4-.4-1-.2h-2l-4.8-.6-1-.4c-1.6 0-3.2-.2-5.2-.6l-3.8-.2-1.6-.4-1.4-.2-7.4-1-2.4-.6c-1.4 0-3-.2-4.6-.6l-3.6-.6-2.2-.4-4-.6-1.6-.2c-1.2 0-2 0-2.4-.4-1.4 0-3-.2-4.6-.2-1.6-1-3-2.4-4-4.4-2.4-8.8.6-16 9-21.4 3.2-2.6 7-3.2 11-1.8l7.8.8c-.4 2 .6 3 2.6 3.2 1.2.2 2.4.4 3.2.6s1.6.2 2.8.2l2 .4c.2.2.6.2 1.4.2 1.8.4 4 .8 6.8 1l2.6.6c1 0 1.8.2 2.4.2 1.2 0 2.8.4 4.6.8q2.4 0 5.4.6c1.2.2 2.8.2 4.6.2l1.2.4q2.1 0 6 .6h2.2l1.4.2h2.8l2 .4h3.2l1.8.2h12.6l2.4-.2c3.2-.2 6-.6 8.4-1 2 0 3.6-.4 5-.8l1.4-1.4 3.4-.6c-4.4-3.4-8.2-7.8-11.8-13l-4.4-3.2-1.6-1.2-.8-.6-3.6-2.2-1-.8-3.4-1.8-5-3.2-15.8-8.6c-2.4-1.2-4.4-2.2-5.6-3-1.4-.8-4.4-2.2-8.8-4.6s-7-3.6-7.6-4l-11.4-6.4-1.4-1-8.8-5.2-1.6-1.2-.6-.2-2-1.6-1.8-1.2c-.8-.4-1.6-1-2.6-2.2l-2-1.4-1.8-1.4-7.6-7.2c-.8-.6-1.4-1.4-2-2.6l-1-.8-7.4-11.4c-.8-2.2-1.4-4-2-5.4q-.6-3-.6-7.8v-10c.4-1.2.8-2.8 1.2-5.2.2-1 .6-2.2 1.4-3.4l1-2.8 2-3.4.4-.8 2.6-3.8q.6-1.2 2.4-3l1-1 1.6-2zM320.17 341.8c-4 1.4-7.4 2.8-10.4 4.2-3 1.6-5.8 2.2-8.2 2-3.8-.4-6.6-1.8-8.6-4.4s-2.6-6-1.6-10c.4-1.6 1-3 2-4.6 2-40.6 6.8-64.6 14.6-72-1.2-17.6-.8-28.4 1-32.4 4.8-7.2 10-10.8 15.4-10.4 2.4.4 4.4 2.8 6.4 7.4 2.2 6 2.2 13.6-.2 22.4-.8 3-1.8 6-3 9.2l-9 74zm64.59-119.2 8.4-.2c10.8 3 18.2 14 21.8 32.8 14-26 29-31.4 45.4-16.4.8 2.4 1.4 5.2 1.4 8.4.4 2-1 7.4-3.8 16.4l.2 19 1 14.2-.8 4.8-.6 2.6-.6 6.4-.8 4.4-.6 2.2.2 5.6.4 8.2c-22 4.8-30.8 1-26.4-11.2 2-5.4 2.8-9 2.2-10.8l.8-6.4 2-16.4-1.8-9.4-.4-5.6.2-1.4-.8-1.4c-.8 2-2.2 4.6-4.2 7.6l-1.4 2c1.6 7-3.6 11.2-16 12.4l-3.6-.4-3.8-1.6c-4-4.4-7-10.2-9-17.2-1.4-2.4-2.6-5.6-3.6-10l-1.8-5-.2-1.2c-1.6-4.2-4-8.2-7.4-12.2-1.4 2.4-2.4 5-2.8 8.2l-.6 1.2c-.2 1.6-.6 3.2-1.4 5.2l-1.2 8.6-.6 2.6-2.2 24.6.4 1.8-.6 6.4-.8 2.6c-4.2 11.4-12 16.8-23.4 16.4-2-.8-3.4-2.6-4.4-5.2-.6-2.8-.6-6.6.2-11l2-21.6 3-8.8c1.8-4 2-7 .6-9.2v-4.8l2.8-4.2v-2.4l.4-4v-1.8l6.8-9 5.2-5.8 5.8-5.4 5.6-3.2zm147.274-15.4.8-.6q56.4-2.1 42.6 61.2c-8.4 23.8-26.8 35.2-54.8 34.4-.4 4.6.2 10.4 1.8 17.6l.6 2.6q-1.2 5.7-6 9.6c-15.4 5.8-23-4.4-22.6-30.8-20-.4-28.8-7-26.6-19.8q7.8-13.2 27-6c0-18.6 5.2-36.6 16-54.2l3.6-4.2 2.6-2.2 1.8-1.8c3.6-2.6 8-4.6 13.2-5.8m23.6 47c4.4-16.6-.2-26-14.2-28.2-1.8.4-3.8 1.4-6.2 2.8-10.2 13.2-15.6 29.6-16.2 49 19.8 2.2 32-5.6 36.6-23.6m104.443-55.6 4.4-1.8c11.4-1.4 16.8 3.8 16.2 15.8-1.2 2.8-3 5-5.2 6.6-3 1.6-6.6 2.8-11 4-.4.4-.8.6-1.6 1s-1.4.4-2 .4l-6.2 2.2-1.6.8-3.2 1.4c-2.8.8-5.6 2.4-8.8 4.4l-1.8.8c-1.6 1.6-3 3.4-4.4 5.8l-.4 8.2.4 3.2 2.8 10q.6 1.8 1.2 4.8l1.4 3.6 1.2 5.8 1 1.6q.3 3.3 1.8 6.6c0 2 .4 3.8 1.2 5.8l.4 3 .6 3.6.4 2.2.4 2.2v8l-.4 2.6-.4 3-1.4 4c-9.4 16-27.4 21.6-54.2 16.8q-15.9-10.8.6-23.4l7.4-.4c7.6 1.6 15.2.6 22.8-2.6q.9-3 .6-6.6l-6.6-26-.6-1.8-.4-1.8-.4-1.8-1.4-3.4-.4-2.6-2.2-9.8-.4-2.2v-3.4l-.4-1.4c0-2.2 0-5.2.4-8.8v-1.2l.8-3.6.6-2.2 1.2-3q.3-1.2 1.8-3.6l3-4.8c10.8-10.2 25.2-17.6 42.8-22m52.325 45.4c10.4 0 20.2 6.2 29.2 18.4 8.8 12.2 13.4 26.2 13.4 42 0 13.2-7.6 24.6-22.8 34-13.6 8.2-27.2 12.4-41.2 12.4-8.8 0-15.6-5.2-20-15.6-3.2-7.6-4.8-16.8-4.8-27.2 0-15.8 3.6-29.8 10.8-42.2 8.6-14.4 20.4-21.6 35.4-21.8m-21.4 64c-.2.6-.4 1-.4 1.2s-.6 1.2-1.8 3.2-1.8 3.6-1.8 5.2c0 2.6 1.2 5.4 4 8.2l5.6 3c1.6.8 4 1.4 7.6 1.4l6.4-.6c3.2-.2 7.8-4 13.8-11.2s9.2-15.4 9.4-24.6c0-6.8-2-13.2-5.6-19.2-4.4-6.6-10-10-16.6-10l-2.6.2c-6 0-10.4 4.4-13.4 13.2-2.8 8.4-4.4 18.4-4.6 30m129.804-98.6c2.4-1.6 4.2-2.8 5.6-3.6l3.6-.8 3.4.6 4.4 3 7.2 10.4c10.4 14.8 15 37 13.4 67-2 34-13 47.4-32.8 40l-3.8-4c-2-8.8-7.2-16.4-15.6-23-.8 1.8-1.4 3.8-1.4 5.8l-.6 1.4c0 2.4-.4 5.4-1.4 8.6l-1.4 9.4-1.2 4.8-2.6 5.6-1.8 2.6c-3.6 7.6-8.4 11-14 10.6q-11.4-1.2-13.2-12c0-3.6 1-7.4 3-11.8l1.6-4c0-2 .8-4.8 2-8 8.4-17.6 15.6-30.2 21.2-37.4 12-3.2 23.2-.4 34 8.4 11.8-8 10-26.4-5.2-54.8l-6.4-12zm120.717-10.8 4.4-1.8c11.4-1.4 16.8 3.8 16.2 15.8-1.2 2.8-3 5-5.2 6.6-3 1.6-6.6 2.8-11 4-.4.4-.8.6-1.6 1s-1.4.4-2 .4l-6.2 2.2-1.6.8-3.2 1.4c-2.8.8-5.6 2.4-8.8 4.4l-1.8.8c-1.6 1.6-3 3.4-4.4 5.8l-.4 8.2.4 3.2 2.8 10q.6 1.8 1.2 4.8l1.4 3.6 1.2 5.8 1 1.6q.3 3.3 1.8 6.6c0 2 .4 3.8 1.2 5.8l.4 3 .6 3.6.4 2.2.4 2.2v8l-.4 2.6-.4 3-1.4 4c-9.4 16-27.4 21.6-54.2 16.8q-15.9-10.8.6-23.4l7.4-.4c7.6 1.6 15.2.6 22.8-2.6q.9-3 .6-6.6l-6.6-26-.6-1.8-.4-1.8-.4-1.8-1.4-3.4-.4-2.6-2.2-9.8-.4-2.2v-3.4l-.4-1.4c0-2.2 0-5.2.4-8.8v-1.2l.8-3.6.6-2.2 1.2-3q.3-1.2 1.8-3.6l3-4.8c10.8-10.2 25.2-17.6 42.8-22M465.178 436.2c8.6.6 16 9.2 22 25.8 6.6 18.4 10.6 33 12.2 43.4l9.2 63.6-1.6 4.4c-.8 2-1.6 3.6-2.8 4.4s-2.2 1.4-3.4 1.6l-3 .2c-2 0-3.4-.4-4.2-.8l-3.4-1.2.6-8 .6-7.8c.8-8 0-13.8-2-17.8s-6.6-6.2-13.8-6.8c-20.4-1.4-33.4-1.2-38.6.8s-9.6 6.6-12.8 13.8q-4.8 10.8-16.2 19.2l-3.6.8h-4c-2 0-3.2-.8-3.8-2-.4-1-.4-2.4-.2-4.2.2-3.4.8-6.8 1.8-10.4 1.2-4.2 2.2-7.4 3.2-9.8 3.2-7 9.4-23.6 18.4-49.6 7.2-21 14-36.8 20.6-47.4 5.6-8.8 13.8-12.8 24.8-12.2m-27.4 81.6 7.2-.8h4.4l11.6 1.8c2 .4 4.8-.2 8.4-1.4 3-.8 7.2-3.2 12.4-7-.4-8.8-2.4-19.6-6-32.6-3.6-12.4-6.4-19-8.6-19.4l-2.2-.4h-1.2c-7.6-.4-12.6 7.6-15.4 24-2.8 16.6-6.4 28.6-10.6 35.8m139.471-109.6.8-.6q56.4-2.1 42.6 61.2c-8.4 23.8-26.8 35.2-54.8 34.4-.4 4.6.2 10.4 1.8 17.6l.6 2.6q-1.2 5.7-6 9.6c-15.4 5.8-23-4.4-22.6-30.8-20-.4-28.8-7-26.6-19.8q7.8-13.2 27-6c0-18.6 5.2-36.6 16-54.2l3.6-4.2 2.6-2.2 1.8-1.8c3.6-2.6 8-4.6 13.2-5.8m23.6 47c4.4-16.6-.2-26-14.2-28.2-1.8.4-3.8 1.4-6.2 2.8-10.2 13.2-15.6 29.6-16.2 49 19.8 2.2 32-5.6 36.6-23.6m60.043 87.6c-4 1.4-7.4 2.8-10.4 4.2-3 1.6-5.8 2.2-8.2 2-3.8-.4-6.6-1.8-8.6-4.4s-2.6-6-1.6-10c.4-1.6 1-3 2-4.6 2-40.6 6.8-64.6 14.6-72-1.2-17.6-.8-28.4 1-32.4 4.8-7.2 10-10.8 15.4-10.4 2.4.4 4.4 2.8 6.4 7.4 2.2 6 2.2 13.6-.2 22.4-.8 3-1.8 6-3 9.2l-9 74z"/><path fill="#ffcd1b" d="M436.022 9.4c4 .8 6.6 4.4 8.2 11.2 1.6 7.6 2.6 11.4 3.2 11.8l6.4 1.6 10.4.8 12.4-.6 9.8-1.4 3.2 4.2q1.8 2.4 1.8 7.2c0 2-.6 3.8-1.6 5.2l-2.6 3.6h-10.2c-1.6 0-3.8-.4-6.4-.8l-16.4-2.2c-1.8 0-3.2.4-4.2.8-1.2.4-2 2.2-2.8 5.4s-1.2 17.8-1.2 43.4l.2 65.8-12.4 4-10.2-3.8-2-25.2-.6-25c-.2-4.8.2-16.2 1-34.6l1-23.4c0-2.4-.2-4.6-.6-7-2.4-3.4-5.2-5.2-8.8-5.2l-6.8 1-8 .8c-5.2 0-9.8-1.4-14.2-4.4l-2.4-3.4c-.2-.4-.6-1.6-1-3.8q0-3 1.8-4.8l3.2-2.8c3.8 0 9.6.6 17.4 1.4s13.6 1.2 17.6 1.2c.8 0 1.2-.4 1.4-1.4l-.4-2.8-.2-2.8.6-3.8c.4-1.4 1-2.8 2.2-4q.6-1.2 4.8-2.4c2.6-.8 4.8-2 6.4-3.8m129.95 2c-1.4-3.6 1.8-7.2 9.6-11.2 2.8-.2 6.2 0 10.2.8 1.8 2 3 4.2 3.8 6.6l-.4 2.6v5l-.6.8-1 16-.4 3-.6 10.4c-.4.4-.4.8-.4 1.6l-1 20.4-.4 1.2v9.8c12.4.4 15.6 3.6 9.4 9.8-3.4 5.2-7 7.2-11 6.2l1.6 16.8c2.4 13.2-4 23-19.4 29.4-3.6.4-7-.6-9.8-2.8l-1.8-6.2 2.6-26.6 1.8-9.4-15.2 2-16 .4 5 13.6 2.6 7.6c1.6 4 1.8 8.2.6 12.2-1.6 3.2-3.2 6.4-5.2 9.2-4.8 2.6-10.4 3.2-16.4 1.6-1.2-1-2.2-3.4-3.4-7l-.6-3.2-1.4-7.2-.4-3.2-.6-1.6-1-9.2-.4-2v-3.4c-.4-1.6-.6-3.4-.6-5.8-2.8-.2-5.8-1.2-8.6-3.2-1-6.8 1.8-13.2 8.2-18.8v-2.4c0-2.2 0-5 .4-8.4V64l.6-.8v-3.8l1-5.8V52l1.8-10.4.6-2.8.4-2.6c0-1 .2-2.4 1-4.2.4-1.2.6-2.6 1-4l.4-1.8c.6-1.6 1.8-3.6 3.4-6.2l.6-.8c3.4-3.8 8-6.8 14-9 4.4-.4 8.2.8 11.2 4 .6 2.4-.2 4.2-2.4 5.6l1 4.6-2.2 3.8c-1.2 2.2-1.8 3.4-2 3.8-.4.4-1 2.2-2.2 5.4v3c0 4-.6 7-1.4 9.4l-2.6 27.8c7.4.6 13.4.8 18 .4 2.2.4 6.4.4 12.4 0 .4-5.6.8-9.8.8-12.4 3.4-19.2 5.2-37.4 5.4-54.2m75.944-7 5-1.6c20.4-2.8 33.2 5.8 38 26 2.2 23.6-7.8 42-30.2 55.2l-7.4 2.4c-2.4 1-5 1.6-8.2 2l-3 .4-1.4.6h-7c.4 2 1 4 2 6.2l.6 1c13.2 19 31 22 53.2 8.8 1.8-.6 4-1 6.4-1 4 1.2 7.6 3.8 10.6 7.8q.9 7.2-1.8 13.8c-11.8 9.2-21.8 13.6-30.2 13.2l-6.2-.2-12.4 3c-9-1.2-16-5.4-21.2-12.4q-7.8-10.2-23.4-24.6-15.3-44.4 15.6-87 1.8-2.4 6-5.4l.8-1 2.6-1.4 1-1c2.4-1.6 6-3.2 10.6-4.8m18.4 44.4c6.6-16 5.8-26.2-2.6-30.8-17.4 6.6-29 21.4-34.6 44.4-1.8 3.6-2.4 7.4-2 11.4l19.2-4.6c7.6-4 14.2-10.8 20-20.4M154.956 209c22.8-16.4 50.4-26.8 83.2-31.2 44-3.4 60.4 9.4 49.6 38.6-2 3.6-5.6 5.4-10.4 5.4-4.4-2.8-6-6.8-5-12.4l-3-2.6c-3.4-1.6-7.4-2.6-11.8-3l-1-.4h-16.4l-2.4.4-7 1h-1.4l-3.2.6c-1 1.6-3.2 2-6.8 1.2l-4 .8c-5.8 1.4-11.4 3-16.8 4.6l-1 .6c-1.2.4-4 1.4-8.6 3.2l-2.4.8-.6.4q-2.1 1.2-5.4 2.4l-9 5-2 .8-.8.6-8.2 2.2-8.6 5.2-2.8 7.2 2.6 8c6.2 4 9.6 6.4 10 6.8l12.8 10.8 4.6 3c.2.4.6.8 1.4 1l18.8 11.2c0 .4.4.6 1 1s1.2.6 1.6.6l14.8 7.6 1.2 1 4.8 2.2 27.8 15.8c1 1.2 2.4 2 4 2.8.8.8 2.6 2.2 5 4l1 .6 3.8 3.4c1.2 1.2 2.8 2.6 4.4 4.2l1.6 2 .6.6c10 12 13.8 23.2 11.4 33.4l-23.8 19.8-9.6 1.8c-1.4 0-2.8.2-4 .6h-2.2l-2.2.4h-25.2l-2.6-.4h-3.8l-1.2-.2c-2 0-4-.2-6.2-.6h-2.2l-2.4-.4-1-.2h-2l-4.8-.6-1-.4c-1.6 0-3.2-.2-5.2-.6l-3.8-.2-1.6-.4-1.4-.2-7.4-1-2.4-.6c-1.4 0-3-.2-4.6-.6l-3.6-.6-2.2-.4-4-.6-1.6-.2c-1.2 0-2 0-2.4-.4-1.4 0-3-.2-4.6-.2-1.6-1-3-2.4-4-4.4-2.4-8.8.6-16 9-21.4 3.2-2.6 7-3.2 11-1.8l7.8.8c-.4 2 .6 3 2.6 3.2 1.2.2 2.4.4 3.2.6s1.6.2 2.8.2l2 .4c.2.2.6.2 1.4.2 1.8.4 4 .8 6.8 1l2.6.6c1 0 1.8.2 2.4.2 1.2 0 2.8.4 4.6.8q2.4 0 5.4.6c1.2.2 2.8.2 4.6.2l1.2.4q2.1 0 6 .6h2.2l1.4.2h2.8l2 .4h3.2l1.8.2h12.6l2.4-.2c3.2-.2 6-.6 8.4-1 2 0 3.6-.4 5-.8l1.4-1.4 3.4-.6c-4.4-3.4-8.2-7.8-11.8-13l-4.4-3.2-1.6-1.2-.8-.6-3.6-2.2-1-.8-3.4-1.8-5-3.2-15.8-8.6c-2.4-1.2-4.4-2.2-5.6-3-1.4-.8-4.4-2.2-8.8-4.6s-7-3.6-7.6-4l-11.4-6.4-1.4-1-8.8-5.2-1.6-1.2-.6-.2-2-1.6-1.8-1.2c-.8-.4-1.6-1-2.6-2.2l-2-1.4-1.8-1.4-7.6-7.2c-.8-.6-1.4-1.4-2-2.6l-1-.8-7.4-11.4c-.8-2.2-1.4-4-2-5.4q-.6-3-.6-7.8v-10c.4-1.2.8-2.8 1.2-5.2.2-1 .6-2.2 1.4-3.4l1-2.8 2-3.4.4-.8 2.6-3.8q.6-1.2 2.4-3l1-1 1.6-2zm171.956 127.8c-4 1.4-7.4 2.8-10.4 4.2-3 1.6-5.8 2.2-8.2 2-3.8-.4-6.6-1.8-8.6-4.4s-2.6-6-1.6-10c.4-1.6 1-3 2-4.6 2-40.6 6.8-64.6 14.6-72-1.2-17.6-.8-28.4 1-32.4 4.8-7.2 10-10.8 15.4-10.4 2.4.4 4.4 2.8 6.4 7.4 2.2 6 2.2 13.6-.2 22.4-.8 3-1.8 6-3 9.2l-9 74zm64.59-119.2 8.4-.2c10.8 3 18.2 14 21.8 32.8 14-26 29-31.4 45.4-16.4.8 2.4 1.4 5.2 1.4 8.4.4 2-1 7.4-3.8 16.4l.2 19 1 14.2-.8 4.8-.6 2.6-.6 6.4-.8 4.4-.6 2.2.2 5.6.4 8.2c-22 4.8-30.8 1-26.4-11.2 2-5.4 2.8-9 2.2-10.8l.8-6.4 2-16.4-1.8-9.4-.4-5.6.2-1.4-.8-1.4c-.8 2-2.2 4.6-4.2 7.6l-1.4 2c1.6 7-3.6 11.2-16 12.4l-3.6-.4-3.8-1.6c-4-4.4-7-10.2-9-17.2-1.4-2.4-2.6-5.6-3.6-10l-1.8-5-.2-1.2c-1.6-4.2-4-8.2-7.4-12.2-1.4 2.4-2.4 5-2.8 8.2l-.6 1.2c-.2 1.6-.6 3.2-1.4 5.2l-1.2 8.6-.6 2.6-2.2 24.6.4 1.8-.6 6.4-.8 2.6c-4.2 11.4-12 16.8-23.4 16.4-2-.8-3.4-2.6-4.4-5.2-.6-2.8-.6-6.6.2-11l2-21.6 3-8.8c1.8-4 2-7 .6-9.2v-4.8l2.8-4.2v-2.4l.4-4v-1.8l6.8-9 5.2-5.8 5.8-5.4 5.6-3.2zm147.274-15.4.8-.6q56.4-2.1 42.6 61.2c-8.4 23.8-26.8 35.2-54.8 34.4-.4 4.6.2 10.4 1.8 17.6l.6 2.6q-1.2 5.7-6 9.6c-15.4 5.8-23-4.4-22.6-30.8-20-.4-28.8-7-26.6-19.8q7.8-13.2 27-6c0-18.6 5.2-36.6 16-54.2l3.6-4.2 2.6-2.2 1.8-1.8c3.6-2.6 8-4.6 13.2-5.8m23.6 47c4.4-16.6-.2-26-14.2-28.2-1.8.4-3.8 1.4-6.2 2.8-10.2 13.2-15.6 29.6-16.2 49 19.8 2.2 32-5.6 36.6-23.6m104.444-55.6 4.4-1.8c11.4-1.4 16.8 3.8 16.2 15.8-1.2 2.8-3 5-5.2 6.6-3 1.6-6.6 2.8-11 4-.4.4-.8.6-1.6 1s-1.4.4-2 .4l-6.2 2.2-1.6.8-3.2 1.4c-2.8.8-5.6 2.4-8.8 4.4l-1.8.8c-1.6 1.6-3 3.4-4.4 5.8l-.4 8.2.4 3.2 2.8 10q.6 1.8 1.2 4.8l1.4 3.6 1.2 5.8 1 1.6q.3 3.3 1.8 6.6c0 2 .4 3.8 1.2 5.8l.4 3 .6 3.6.4 2.2.4 2.2v8l-.4 2.6-.4 3-1.4 4c-9.4 16-27.4 21.6-54.2 16.8q-15.9-10.8.6-23.4l7.4-.4c7.6 1.6 15.2.6 22.8-2.6q.9-3 .6-6.6l-6.6-26-.6-1.8-.4-1.8-.4-1.8-1.4-3.4-.4-2.6-2.2-9.8-.4-2.2v-3.4l-.4-1.4c0-2.2 0-5.2.4-8.8v-1.2l.8-3.6.6-2.2 1.2-3q.3-1.2 1.8-3.6l3-4.8c10.8-10.2 25.2-17.6 42.8-22m52.325 45.4c10.4 0 20.2 6.2 29.2 18.4 8.8 12.2 13.4 26.2 13.4 42 0 13.2-7.6 24.6-22.8 34-13.6 8.2-27.2 12.4-41.2 12.4-8.8 0-15.6-5.2-20-15.6-3.2-7.6-4.8-16.8-4.8-27.2 0-15.8 3.6-29.8 10.8-42.2 8.6-14.4 20.4-21.6 35.4-21.8m-21.4 64c-.2.6-.4 1-.4 1.2s-.6 1.2-1.8 3.2-1.8 3.6-1.8 5.2c0 2.6 1.2 5.4 4 8.2l5.6 3c1.6.8 4 1.4 7.6 1.4l6.4-.6c3.2-.2 7.8-4 13.8-11.2s9.2-15.4 9.4-24.6c0-6.8-2-13.2-5.6-19.2-4.4-6.6-10-10-16.6-10l-2.6.2c-6 0-10.4 4.4-13.4 13.2-2.8 8.4-4.4 18.4-4.6 30m129.803-98.6c2.4-1.6 4.2-2.8 5.6-3.6l3.6-.8 3.4.6 4.4 3 7.2 10.4c10.4 14.8 15 37 13.4 67-2 34-13 47.4-32.8 40l-3.8-4c-2-8.8-7.2-16.4-15.6-23-.8 1.8-1.4 3.8-1.4 5.8l-.6 1.4c0 2.4-.4 5.4-1.4 8.6l-1.4 9.4-1.2 4.8-2.6 5.6-1.8 2.6c-3.6 7.6-8.4 11-14 10.6q-11.4-1.2-13.2-12c0-3.6 1-7.4 3-11.8l1.6-4c0-2 .8-4.8 2-8 8.4-17.6 15.6-30.2 21.2-37.4 12-3.2 23.2-.4 34 8.4 11.8-8 10-26.4-5.2-54.8l-6.4-12zm120.717-10.8 4.4-1.8c11.4-1.4 16.8 3.8 16.2 15.8-1.2 2.8-3 5-5.2 6.6-3 1.6-6.6 2.8-11 4-.4.4-.8.6-1.6 1s-1.4.4-2 .4l-6.2 2.2-1.6.8-3.2 1.4c-2.8.8-5.6 2.4-8.8 4.4l-1.8.8c-1.6 1.6-3 3.4-4.4 5.8l-.4 8.2.4 3.2 2.8 10q.6 1.8 1.2 4.8l1.4 3.6 1.2 5.8 1 1.6q.3 3.3 1.8 6.6c0 2 .4 3.8 1.2 5.8l.4 3 .6 3.6.4 2.2.4 2.2v8l-.4 2.6-.4 3-1.4 4c-9.4 16-27.4 21.6-54.2 16.8q-15.9-10.8.6-23.4l7.4-.4c7.6 1.6 15.2.6 22.8-2.6q.9-3 .6-6.6l-6.6-26-.6-1.8-.4-1.8-.4-1.8-1.4-3.4-.4-2.6-2.2-9.8-.4-2.2v-3.4l-.4-1.4c0-2.2 0-5.2.4-8.8v-1.2l.8-3.6.6-2.2 1.2-3q.3-1.2 1.8-3.6l3-4.8c10.8-10.2 25.2-17.6 42.8-22M471.92 431.2c8.6.6 16 9.2 22 25.8 6.6 18.4 10.6 33 12.2 43.4l9.2 63.6-1.6 4.4c-.8 2-1.6 3.6-2.8 4.4s-2.2 1.4-3.4 1.6l-3 .2c-2 0-3.4-.4-4.2-.8l-3.4-1.2.6-8 .6-7.8c.8-8 0-13.8-2-17.8s-6.6-6.2-13.8-6.8c-20.4-1.4-33.4-1.2-38.6.8s-9.6 6.6-12.8 13.8q-4.8 10.8-16.2 19.2l-3.6.8h-4c-2 0-3.2-.8-3.8-2-.4-1-.4-2.4-.2-4.2.2-3.4.8-6.8 1.8-10.4 1.2-4.2 2.2-7.4 3.2-9.8 3.2-7 9.4-23.6 18.4-49.6 7.2-21 14-36.8 20.6-47.4 5.6-8.8 13.8-12.8 24.8-12.2m-27.4 81.6 7.2-.8h4.4l11.6 1.8c2 .4 4.8-.2 8.4-1.4 3-.8 7.2-3.2 12.4-7-.4-8.8-2.4-19.6-6-32.6-3.6-12.4-6.4-19-8.6-19.4l-2.2-.4h-1.2c-7.6-.4-12.6 7.6-15.4 24-2.8 16.6-6.4 28.6-10.6 35.8m139.471-109.6.8-.6q56.4-2.1 42.6 61.2c-8.4 23.8-26.8 35.2-54.8 34.4-.4 4.6.2 10.4 1.8 17.6l.6 2.6q-1.2 5.7-6 9.6c-15.4 5.8-23-4.4-22.6-30.8-20-.4-28.8-7-26.6-19.8q7.8-13.2 27-6c0-18.6 5.2-36.6 16-54.2l3.6-4.2 2.6-2.2 1.8-1.8c3.6-2.6 8-4.6 13.2-5.8m23.6 47c4.4-16.6-.2-26-14.2-28.2-1.8.4-3.8 1.4-6.2 2.8-10.2 13.2-15.6 29.6-16.2 49 19.8 2.2 32-5.6 36.6-23.6m60.044 87.6c-4 1.4-7.4 2.8-10.4 4.2-3 1.6-5.8 2.2-8.2 2-3.8-.4-6.6-1.8-8.6-4.4s-2.6-6-1.6-10c.4-1.6 1-3 2-4.6 2-40.6 6.8-64.6 14.6-72-1.2-17.6-.8-28.4 1-32.4 4.8-7.2 10-10.8 15.4-10.4 2.4.4 4.4 2.8 6.4 7.4 2.2 6 2.2 13.6-.2 22.4-.8 3-1.8 6-3 9.2l-9 74z"/></svg>